M48
;DRILL file {KiCad 4.0.6} date Thursday, July 20, 2017 'AMt' 10:41:26 AM
;FORMAT={-:-/ absolute / inch / decimal}
FMAT,2
INCH,TZ
T1C0.016
T2C0.031
T3C0.032
T4C0.039
T5C0.040
T6C0.047
%
G90
G05
M72
T1
X6.059Y-4.356
X6.969Y-3.966
T2
X5.654Y-4.231
T3
X5.654Y-4.3294
T4
X5.736Y-4.6924
X5.736Y-4.8696
X5.7971Y-4.086
X5.992Y-4.6924
X5.992Y-4.8696
X5.994Y-4.086
X6.139Y-4.231
X6.139Y-4.331
X6.139Y-4.431
X6.139Y-4.531
T5
X5.539Y-4.231
X5.539Y-4.331
X5.539Y-4.431
X5.539Y-4.531
X5.539Y-4.631
X6.489Y-4.886
X6.589Y-4.886
X6.639Y-3.956
X6.639Y-4.056
X6.639Y-4.156
X6.719Y-4.886
X6.739Y-3.956
X6.739Y-4.056
X6.739Y-4.156
X6.819Y-4.886
X6.839Y-3.956
X6.839Y-4.056
X6.839Y-4.156
X6.959Y-4.886
X7.059Y-4.886
X7.439Y-4.886
X7.539Y-4.886
X7.589Y-3.956
X7.589Y-4.056
X7.589Y-4.156
X7.669Y-4.886
X7.689Y-3.956
X7.689Y-4.056
X7.689Y-4.156
X7.769Y-4.886
X7.789Y-3.956
X7.789Y-4.056
X7.789Y-4.156
X7.909Y-4.886
X8.009Y-4.886
T6
X6.539Y-5.106
X6.539Y-5.406
X6.779Y-5.106
X6.779Y-5.406
X7.019Y-5.106
X7.019Y-5.406
X7.489Y-5.106
X7.489Y-5.406
X7.729Y-5.106
X7.729Y-5.406
X7.969Y-5.106
X7.969Y-5.406
T0
M30
