G04 #@! TF.FileFunction,Soldermask,Top*
%FSLAX46Y46*%
G04 Gerber Fmt 4.6, Leading zero omitted, Abs format (unit mm)*
G04 Created by KiCad (PCBNEW 4.0.6) date Saturday, July 01, 2017 'PMt' 08:50:16 PM*
%MOMM*%
%LPD*%
G01*
G04 APERTURE LIST*
%ADD10C,0.100000*%
%ADD11R,2.400000X2.400000*%
%ADD12C,2.400000*%
%ADD13R,1.700000X1.700000*%
%ADD14C,1.700000*%
%ADD15R,2.100000X2.100000*%
%ADD16O,2.100000X2.100000*%
%ADD17O,1.900000X1.300000*%
%ADD18R,1.900000X1.300000*%
%ADD19R,2.432000X2.432000*%
%ADD20O,2.432000X2.432000*%
%ADD21R,2.432000X2.127200*%
%ADD22O,2.432000X2.127200*%
%ADD23R,1.700000X1.900000*%
G04 APERTURE END LIST*
D10*
D11*
X147247600Y-103784400D03*
D12*
X152247600Y-103784400D03*
D13*
X143611600Y-107467400D03*
D14*
X143611600Y-109967400D03*
D15*
X155930600Y-107467400D03*
D16*
X155930600Y-110007400D03*
X155930600Y-112547400D03*
X155930600Y-115087400D03*
D15*
X140690600Y-107467400D03*
D16*
X140690600Y-110007400D03*
X140690600Y-112547400D03*
X140690600Y-115087400D03*
D17*
X163677600Y-110515400D03*
X163677600Y-111785400D03*
D18*
X163677600Y-109245400D03*
D17*
X168122600Y-110515400D03*
X168122600Y-111785400D03*
D18*
X168122600Y-109245400D03*
D17*
X173202600Y-110515400D03*
X173202600Y-111785400D03*
D18*
X173202600Y-109245400D03*
D19*
X164947600Y-103530400D03*
D20*
X164947600Y-106070400D03*
D19*
X167487600Y-103530400D03*
D20*
X167487600Y-106070400D03*
D19*
X170027600Y-103530400D03*
D20*
X170027600Y-106070400D03*
D21*
X164947600Y-120040400D03*
D22*
X164947600Y-122580400D03*
X164947600Y-125120400D03*
D21*
X167487600Y-120040400D03*
D22*
X167487600Y-122580400D03*
X167487600Y-125120400D03*
D21*
X170027600Y-120040400D03*
D22*
X170027600Y-122580400D03*
X170027600Y-125120400D03*
D23*
X164185600Y-114452400D03*
X164185600Y-117152400D03*
X167614600Y-114452400D03*
X167614600Y-117152400D03*
X171297600Y-114452400D03*
X171297600Y-117152400D03*
M02*
