M48
;DRILL file {KiCad 4.0.6} date Saturday, July 01, 2017 'PMt' 08:50:20 PM
;FORMAT={-:-/ absolute / inch / decimal}
FMAT,2
INCH,TZ
T1C0.016
T2C0.024
T3C0.031
T4C0.032
T5C0.039
T6C0.040
%
G90
G05
M72
T1
X6.059Y-4.356
T2
X6.444Y-4.301
X6.444Y-4.351
X6.444Y-4.401
X6.619Y-4.301
X6.619Y-4.351
X6.619Y-4.401
X6.819Y-4.301
X6.819Y-4.351
X6.819Y-4.401
T3
X5.654Y-4.231
T4
X5.654Y-4.3294
T5
X5.539Y-4.231
X5.539Y-4.331
X5.539Y-4.431
X5.539Y-4.531
X5.7971Y-4.086
X5.994Y-4.086
X6.139Y-4.231
X6.139Y-4.331
X6.139Y-4.431
X6.139Y-4.531
T6
X6.494Y-4.076
X6.494Y-4.176
X6.494Y-4.726
X6.494Y-4.826
X6.494Y-4.926
X6.594Y-4.076
X6.594Y-4.176
X6.594Y-4.726
X6.594Y-4.826
X6.594Y-4.926
X6.694Y-4.076
X6.694Y-4.176
X6.694Y-4.726
X6.694Y-4.826
X6.694Y-4.926
T0
M30
