G04 #@! TF.FileFunction,Profile,NP*
%FSLAX46Y46*%
G04 Gerber Fmt 4.6, Leading zero omitted, Abs format (unit mm)*
G04 Created by KiCad (PCBNEW 4.0.6) date Thursday, July 20, 2017 'AMt' 10:41:19 AM*
%MOMM*%
%LPD*%
G01*
G04 APERTURE LIST*
%ADD10C,0.100000*%
%ADD11C,0.150000*%
G04 APERTURE END LIST*
D10*
D11*
X183870600Y-139852400D02*
X185140600Y-139852400D01*
X183870600Y-97942400D02*
X185140600Y-97942400D01*
X159740600Y-97307400D02*
X161010600Y-97942400D01*
X161010600Y-125247400D02*
X159740600Y-125247400D01*
X161010600Y-139852400D02*
X161010600Y-125247400D01*
X206095600Y-141757400D02*
G75*
G03X208000600Y-139852400I0J1905000D01*
G01*
X208000600Y-139852400D02*
X208000600Y-97942400D01*
X187045600Y-141757400D02*
X206095600Y-141757400D01*
X185140600Y-139852400D02*
G75*
G03X187045600Y-141757400I1905000J0D01*
G01*
X187045600Y-96037400D02*
G75*
G03X185140600Y-97942400I0J-1905000D01*
G01*
X208000600Y-97942400D02*
G75*
G03X206095600Y-96037400I-1905000J0D01*
G01*
X187045600Y-96037400D02*
X206095600Y-96037400D01*
X138150600Y-125247400D02*
G75*
G03X139420600Y-126517400I1270000J0D01*
G01*
X158470600Y-126517400D02*
G75*
G03X159740600Y-125247400I0J1270000D01*
G01*
X139420600Y-126517400D02*
X158470600Y-126517400D01*
X138150600Y-125247400D02*
X138150600Y-118897400D01*
X161010600Y-139852400D02*
G75*
G03X162915600Y-141757400I1905000J0D01*
G01*
X181965600Y-141757400D02*
G75*
G03X183870600Y-139852400I0J1905000D01*
G01*
X162915600Y-96037400D02*
G75*
G03X161010600Y-97942400I0J-1905000D01*
G01*
X183870600Y-97942400D02*
G75*
G03X181965600Y-96037400I-1905000J0D01*
G01*
X162915600Y-96037400D02*
X181965600Y-96037400D01*
X162915600Y-141757400D02*
X181965600Y-141757400D01*
X138150600Y-118897400D02*
X138150600Y-97307400D01*
X139420600Y-96037400D02*
X158470600Y-96037400D01*
X159740600Y-97307400D02*
G75*
G03X158470600Y-96037400I-1270000J0D01*
G01*
X139420600Y-96037400D02*
G75*
G03X138150600Y-97307400I0J-1270000D01*
G01*
M02*
