solid OpenSCAD_Model
  facet normal -1 0 0
    outer loop
      vertex 0 0 0
      vertex 0 0 30
      vertex 0 30 0
    endloop
  endfacet
  facet normal -1 0 0
    outer loop
      vertex 0 30 0
      vertex 0 0 30
      vertex 0 30 30
    endloop
  endfacet
  facet normal 0 -1 0
    outer loop
      vertex 0 0 30
      vertex 0 0 0
      vertex 70 0 0
    endloop
  endfacet
  facet normal 0 -1 0
    outer loop
      vertex 70 0 30
      vertex 0 0 30
      vertex 70 0 0
    endloop
  endfacet
  facet normal 0 0 -1
    outer loop
      vertex 47.4884 14.3556 0
      vertex 0 30 0
      vertex 70 30 0
    endloop
  endfacet
  facet normal 0 0 -1
    outer loop
      vertex 0 0 0
      vertex 0 30 0
      vertex 21.05 11.55 0
    endloop
  endfacet
  facet normal 0 0 -1
    outer loop
      vertex 0 0 0
      vertex 21.05 11.55 0
      vertex 21.6134 9.81603 0
    endloop
  endfacet
  facet normal 0 0 -1
    outer loop
      vertex 0 0 0
      vertex 21.6134 9.81603 0
      vertex 23.0884 8.74438 0
    endloop
  endfacet
  facet normal 0 0 -1
    outer loop
      vertex 0 0 0
      vertex 23.0884 8.74438 0
      vertex 70 0 0
    endloop
  endfacet
  facet normal 0 0 -1
    outer loop
      vertex 23.0884 8.74438 0
      vertex 24.9116 8.74438 0
      vertex 70 0 0
    endloop
  endfacet
  facet normal 0 0 -1
    outer loop
      vertex 26.95 11.55 0
      vertex 70 0 0
      vertex 26.3866 9.81603 0
    endloop
  endfacet
  facet normal 0 0 -1
    outer loop
      vertex 46.0134 9.81603 0
      vertex 0 30 0
      vertex 45.45 11.55 0
    endloop
  endfacet
  facet normal 0 0 -1
    outer loop
      vertex 23.0884 14.3556 0
      vertex 0 30 0
      vertex 24.9116 14.3556 0
    endloop
  endfacet
  facet normal 0 0 -1
    outer loop
      vertex 21.6134 13.284 0
      vertex 0 30 0
      vertex 23.0884 14.3556 0
    endloop
  endfacet
  facet normal 0 0 -1
    outer loop
      vertex 26.95 11.55 0
      vertex 26.3866 13.284 0
      vertex 70 0 0
    endloop
  endfacet
  facet normal 0 0 -1
    outer loop
      vertex 26.3866 13.284 0
      vertex 24.9116 14.3556 0
      vertex 70 0 0
    endloop
  endfacet
  facet normal 0 0 -1
    outer loop
      vertex 21.05 11.55 0
      vertex 0 30 0
      vertex 21.6134 13.284 0
    endloop
  endfacet
  facet normal 0 0 -1
    outer loop
      vertex 24.9116 14.3556 0
      vertex 0 30 0
      vertex 46.0134 9.81603 0
    endloop
  endfacet
  facet normal 0 0 -1
    outer loop
      vertex 24.9116 14.3556 0
      vertex 46.0134 9.81603 0
      vertex 47.4884 8.74438 0
    endloop
  endfacet
  facet normal 0 0 -1
    outer loop
      vertex 24.9116 14.3556 0
      vertex 47.4884 8.74438 0
      vertex 70 0 0
    endloop
  endfacet
  facet normal 0 0 -1
    outer loop
      vertex 49.3116 8.74438 0
      vertex 70 0 0
      vertex 47.4884 8.74438 0
    endloop
  endfacet
  facet normal 0 0 -1
    outer loop
      vertex 50.7866 9.81603 0
      vertex 70 0 0
      vertex 49.3116 8.74438 0
    endloop
  endfacet
  facet normal 0 0 -1
    outer loop
      vertex 47.4884 14.3556 0
      vertex 70 30 0
      vertex 49.3116 14.3556 0
    endloop
  endfacet
  facet normal 0 0 -1
    outer loop
      vertex 70 0 0
      vertex 50.7866 9.81603 0
      vertex 70 30 0
    endloop
  endfacet
  facet normal 0 0 -1
    outer loop
      vertex 50.7866 9.81603 0
      vertex 51.35 11.55 0
      vertex 70 30 0
    endloop
  endfacet
  facet normal 0 0 -1
    outer loop
      vertex 51.35 11.55 0
      vertex 50.7866 13.284 0
      vertex 70 30 0
    endloop
  endfacet
  facet normal 0 0 -1
    outer loop
      vertex 50.7866 13.284 0
      vertex 49.3116 14.3556 0
      vertex 70 30 0
    endloop
  endfacet
  facet normal 0 0 -1
    outer loop
      vertex 46.0134 13.284 0
      vertex 0 30 0
      vertex 47.4884 14.3556 0
    endloop
  endfacet
  facet normal 0 0 -1
    outer loop
      vertex 45.45 11.55 0
      vertex 0 30 0
      vertex 46.0134 13.284 0
    endloop
  endfacet
  facet normal 0 0 -1
    outer loop
      vertex 26.3866 9.81603 0
      vertex 70 0 0
      vertex 24.9116 8.74438 0
    endloop
  endfacet
  facet normal 0 1 0
    outer loop
      vertex 51.35 30 30
      vertex 70 30 0
      vertex 51.35 30 10.8
    endloop
  endfacet
  facet normal 0 1 0
    outer loop
      vertex 0 30 0
      vertex 0 30 30
      vertex 21.05 30 10.8
    endloop
  endfacet
  facet normal 0 1 0
    outer loop
      vertex 0 30 0
      vertex 21.05 30 10.8
      vertex 70 30 0
    endloop
  endfacet
  facet normal 0 1 0
    outer loop
      vertex 21.05 30 10.8
      vertex 26.95 30 10.8
      vertex 70 30 0
    endloop
  endfacet
  facet normal 0 1 0
    outer loop
      vertex 45.45 30 10.8
      vertex 26.95 30 30
      vertex 45.45 30 30
    endloop
  endfacet
  facet normal 0 1 0
    outer loop
      vertex 26.95 30 30
      vertex 45.45 30 10.8
      vertex 26.95 30 10.8
    endloop
  endfacet
  facet normal 0 1 0
    outer loop
      vertex 70 30 0
      vertex 45.45 30 10.8
      vertex 51.35 30 10.8
    endloop
  endfacet
  facet normal 0 1 0
    outer loop
      vertex 70 30 0
      vertex 51.35 30 30
      vertex 70 30 30
    endloop
  endfacet
  facet normal 0 1 0
    outer loop
      vertex 21.05 30 10.8
      vertex 0 30 30
      vertex 21.05 30 30
    endloop
  endfacet
  facet normal 0 1 0
    outer loop
      vertex 45.45 30 10.8
      vertex 70 30 0
      vertex 26.95 30 10.8
    endloop
  endfacet
  facet normal 0 0 1
    outer loop
      vertex 49.6543 2.56574 30
      vertex 0 0 30
      vertex 70 0 30
    endloop
  endfacet
  facet normal 0 0 1
    outer loop
      vertex 42.4 4.10769 30
      vertex 27.7082 3.08732 30
      vertex 25.2543 2.56574 30
    endloop
  endfacet
  facet normal 0 0 1
    outer loop
      vertex 26.95 30 30
      vertex 44.6918 25.9127 30
      vertex 45.45 26.0738 30
    endloop
  endfacet
  facet normal 0 0 1
    outer loop
      vertex 51.35 30 30
      vertex 51.35 26.0738 30
      vertex 52.1082 25.9127 30
    endloop
  endfacet
  facet normal 0 0 1
    outer loop
      vertex 59.3625 19.3808 30
      vertex 60.1378 16.9949 30
      vertex 70 0 30
    endloop
  endfacet
  facet normal 0 0 1
    outer loop
      vertex 51.35 30 30
      vertex 52.1082 25.9127 30
      vertex 54.4 24.8923 30
    endloop
  endfacet
  facet normal 0 0 1
    outer loop
      vertex 60.1378 16.9949 30
      vertex 60.4 14.5 30
      vertex 70 0 30
    endloop
  endfacet
  facet normal 0 0 1
    outer loop
      vertex 70 30 30
      vertex 51.35 30 30
      vertex 56.4296 23.4177 30
    endloop
  endfacet
  facet normal 0 0 1
    outer loop
      vertex 60.4 14.5 30
      vertex 60.1378 12.0051 30
      vertex 70 0 30
    endloop
  endfacet
  facet normal 0 0 1
    outer loop
      vertex 70 30 30
      vertex 56.4296 23.4177 30
      vertex 58.1082 21.5534 30
    endloop
  endfacet
  facet normal 0 0 1
    outer loop
      vertex 70 30 30
      vertex 59.3625 19.3808 30
      vertex 70 0 30
    endloop
  endfacet
  facet normal 0 0 1
    outer loop
      vertex 70 30 30
      vertex 58.1082 21.5534 30
      vertex 59.3625 19.3808 30
    endloop
  endfacet
  facet normal 0 0 1
    outer loop
      vertex 14.2918 21.5534 30
      vertex 15.9704 23.4177 30
      vertex 0 30 30
    endloop
  endfacet
  facet normal 0 0 1
    outer loop
      vertex 60.1378 12.0051 30
      vertex 59.3625 9.61916 30
      vertex 70 0 30
    endloop
  endfacet
  facet normal 0 0 1
    outer loop
      vertex 26.95 30 30
      vertex 26.95 26.0738 30
      vertex 42.4 24.8923 30
    endloop
  endfacet
  facet normal 0 0 1
    outer loop
      vertex 59.3625 9.61916 30
      vertex 58.1082 7.44658 30
      vertex 70 0 30
    endloop
  endfacet
  facet normal 0 0 1
    outer loop
      vertex 36.4 14.5 30
      vertex 36.6622 16.9949 30
      vertex 35.7378 16.9949 30
    endloop
  endfacet
  facet normal 0 0 1
    outer loop
      vertex 56.4296 5.58226 30
      vertex 54.4 4.10769 30
      vertex 70 0 30
    endloop
  endfacet
  facet normal 0 0 1
    outer loop
      vertex 54.4 4.10769 30
      vertex 52.1082 3.08732 30
      vertex 70 0 30
    endloop
  endfacet
  facet normal 0 0 1
    outer loop
      vertex 52.1082 3.08732 30
      vertex 49.6543 2.56574 30
      vertex 70 0 30
    endloop
  endfacet
  facet normal 0 0 1
    outer loop
      vertex 47.1457 2.56574 30
      vertex 0 0 30
      vertex 49.6543 2.56574 30
    endloop
  endfacet
  facet normal 0 0 1
    outer loop
      vertex 44.6918 3.08732 30
      vertex 42.4 4.10769 30
      vertex 0 0 30
    endloop
  endfacet
  facet normal 0 0 1
    outer loop
      vertex 42.4 4.10769 30
      vertex 25.2543 2.56574 30
      vertex 0 0 30
    endloop
  endfacet
  facet normal 0 0 1
    outer loop
      vertex 25.2543 2.56574 30
      vertex 22.7457 2.56574 30
      vertex 0 0 30
    endloop
  endfacet
  facet normal 0 0 1
    outer loop
      vertex 34.9625 9.61916 30
      vertex 40.3704 5.58226 30
      vertex 38.6918 7.44658 30
    endloop
  endfacet
  facet normal 0 0 1
    outer loop
      vertex 35.7378 12.0051 30
      vertex 34.9625 9.61916 30
      vertex 38.6918 7.44658 30
    endloop
  endfacet
  facet normal 0 0 1
    outer loop
      vertex 35.7378 12.0051 30
      vertex 37.4375 9.61916 30
      vertex 36.6622 12.0051 30
    endloop
  endfacet
  facet normal 0 0 1
    outer loop
      vertex 42.4 4.10769 30
      vertex 30 4.10769 30
      vertex 27.7082 3.08732 30
    endloop
  endfacet
  facet normal 0 0 1
    outer loop
      vertex 36 14.5 30
      vertex 35.7378 12.0051 30
      vertex 36.6622 12.0051 30
    endloop
  endfacet
  facet normal 0 0 1
    outer loop
      vertex 35.7378 16.9949 30
      vertex 36 14.5 30
      vertex 36.4 14.5 30
    endloop
  endfacet
  facet normal 0 0 1
    outer loop
      vertex 32.0296 23.4177 30
      vertex 33.7082 21.5534 30
      vertex 38.6918 21.5534 30
    endloop
  endfacet
  facet normal 0 0 1
    outer loop
      vertex 27.7082 25.9127 30
      vertex 30 24.8923 30
      vertex 40.3704 23.4177 30
    endloop
  endfacet
  facet normal 0 0 1
    outer loop
      vertex 33.7082 21.5534 30
      vertex 34.9625 19.3808 30
      vertex 37.4375 19.3808 30
    endloop
  endfacet
  facet normal 0 0 1
    outer loop
      vertex 26.95 30 30
      vertex 42.4 24.8923 30
      vertex 44.6918 25.9127 30
    endloop
  endfacet
  facet normal 0 0 1
    outer loop
      vertex 42.4 24.8923 30
      vertex 26.95 26.0738 30
      vertex 40.3704 23.4177 30
    endloop
  endfacet
  facet normal 0 0 1
    outer loop
      vertex 26.95 26.0738 30
      vertex 27.7082 25.9127 30
      vertex 40.3704 23.4177 30
    endloop
  endfacet
  facet normal 0 0 1
    outer loop
      vertex 40.3704 23.4177 30
      vertex 30 24.8923 30
      vertex 38.6918 21.5534 30
    endloop
  endfacet
  facet normal 0 0 1
    outer loop
      vertex 30 24.8923 30
      vertex 32.0296 23.4177 30
      vertex 38.6918 21.5534 30
    endloop
  endfacet
  facet normal 0 0 1
    outer loop
      vertex 38.6918 21.5534 30
      vertex 33.7082 21.5534 30
      vertex 37.4375 19.3808 30
    endloop
  endfacet
  facet normal 0 0 1
    outer loop
      vertex 45.45 26.0738 30
      vertex 45.45 30 30
      vertex 26.95 30 30
    endloop
  endfacet
  facet normal 0 0 1
    outer loop
      vertex 47.1457 2.56574 30
      vertex 44.6918 3.08732 30
      vertex 0 0 30
    endloop
  endfacet
  facet normal 0 0 1
    outer loop
      vertex 18 24.8923 30
      vertex 20.2918 25.9127 30
      vertex 0 30 30
    endloop
  endfacet
  facet normal 0 0 1
    outer loop
      vertex 15.9704 23.4177 30
      vertex 18 24.8923 30
      vertex 0 30 30
    endloop
  endfacet
  facet normal 0 0 1
    outer loop
      vertex 34.9625 9.61916 30
      vertex 33.7082 7.44658 30
      vertex 40.3704 5.58226 30
    endloop
  endfacet
  facet normal 0 0 1
    outer loop
      vertex 32.0296 5.58226 30
      vertex 30 4.10769 30
      vertex 40.3704 5.58226 30
    endloop
  endfacet
  facet normal 0 0 1
    outer loop
      vertex 33.7082 7.44658 30
      vertex 32.0296 5.58226 30
      vertex 40.3704 5.58226 30
    endloop
  endfacet
  facet normal 0 0 1
    outer loop
      vertex 13.0375 9.61916 30
      vertex 12.2622 12.0051 30
      vertex 0 30 30
    endloop
  endfacet
  facet normal 0 0 1
    outer loop
      vertex 35.7378 12.0051 30
      vertex 38.6918 7.44658 30
      vertex 37.4375 9.61916 30
    endloop
  endfacet
  facet normal 0 0 1
    outer loop
      vertex 36.6622 12.0051 30
      vertex 36.4 14.5 30
      vertex 36 14.5 30
    endloop
  endfacet
  facet normal 0 0 1
    outer loop
      vertex 22.7457 2.56574 30
      vertex 20.2918 3.08732 30
      vertex 0 0 30
    endloop
  endfacet
  facet normal 0 0 1
    outer loop
      vertex 20.2918 3.08732 30
      vertex 18 4.10769 30
      vertex 0 0 30
    endloop
  endfacet
  facet normal 0 0 1
    outer loop
      vertex 15.9704 5.58226 30
      vertex 0 0 30
      vertex 18 4.10769 30
    endloop
  endfacet
  facet normal 0 0 1
    outer loop
      vertex 14.2918 7.44658 30
      vertex 0 0 30
      vertex 15.9704 5.58226 30
    endloop
  endfacet
  facet normal 0 0 1
    outer loop
      vertex 0 30 30
      vertex 0 0 30
      vertex 14.2918 7.44658 30
    endloop
  endfacet
  facet normal 0 0 1
    outer loop
      vertex 12.2622 12.0051 30
      vertex 12 14.5 30
      vertex 0 30 30
    endloop
  endfacet
  facet normal 0 0 1
    outer loop
      vertex 0 30 30
      vertex 14.2918 7.44658 30
      vertex 13.0375 9.61916 30
    endloop
  endfacet
  facet normal 0 0 1
    outer loop
      vertex 13.0375 19.3808 30
      vertex 14.2918 21.5534 30
      vertex 0 30 30
    endloop
  endfacet
  facet normal 0 0 1
    outer loop
      vertex 0 30 30
      vertex 12 14.5 30
      vertex 12.2622 16.9949 30
    endloop
  endfacet
  facet normal 0 0 1
    outer loop
      vertex 0 30 30
      vertex 12.2622 16.9949 30
      vertex 13.0375 19.3808 30
    endloop
  endfacet
  facet normal 0 0 1
    outer loop
      vertex 21.05 26.0738 30
      vertex 21.05 30 30
      vertex 0 30 30
    endloop
  endfacet
  facet normal 0 0 1
    outer loop
      vertex 34.9625 19.3808 30
      vertex 35.7378 16.9949 30
      vertex 36.6622 16.9949 30
    endloop
  endfacet
  facet normal 0 0 1
    outer loop
      vertex 21.05 26.0738 30
      vertex 0 30 30
      vertex 20.2918 25.9127 30
    endloop
  endfacet
  facet normal 0 0 1
    outer loop
      vertex 54.4 24.8923 30
      vertex 56.4296 23.4177 30
      vertex 51.35 30 30
    endloop
  endfacet
  facet normal 0 0 1
    outer loop
      vertex 58.1082 7.44658 30
      vertex 56.4296 5.58226 30
      vertex 70 0 30
    endloop
  endfacet
  facet normal 0 0 1
    outer loop
      vertex 42.4 4.10769 30
      vertex 40.3704 5.58226 30
      vertex 30 4.10769 30
    endloop
  endfacet
  facet normal 0 0 1
    outer loop
      vertex 36.6622 16.9949 30
      vertex 37.4375 19.3808 30
      vertex 34.9625 19.3808 30
    endloop
  endfacet
  facet normal 1 0 0
    outer loop
      vertex 70 0 30
      vertex 70 0 0
      vertex 70 30 0
    endloop
  endfacet
  facet normal 1 0 0
    outer loop
      vertex 70 30 30
      vertex 70 0 30
      vertex 70 30 0
    endloop
  endfacet
  facet normal 0.951056 -0.309017 0
    outer loop
      vertex 21.6134 13.284 0
      vertex 21.6134 13.284 10.8
      vertex 21.05 11.55 10.8
    endloop
  endfacet
  facet normal 0.951056 -0.309017 0
    outer loop
      vertex 21.05 11.55 0
      vertex 21.6134 13.284 0
      vertex 21.05 11.55 10.8
    endloop
  endfacet
  facet normal 0.951056 0.309017 0
    outer loop
      vertex 21.05 11.55 10.8
      vertex 21.6134 9.81603 10.8
      vertex 21.6134 9.81603 0
    endloop
  endfacet
  facet normal 0.951056 0.309017 0
    outer loop
      vertex 21.05 11.55 0
      vertex 21.05 11.55 10.8
      vertex 21.6134 9.81603 0
    endloop
  endfacet
  facet normal 0.587786 -0.809017 0
    outer loop
      vertex 23.0884 14.3556 0
      vertex 23.0884 14.3556 10.8
      vertex 21.6134 13.284 10.8
    endloop
  endfacet
  facet normal 0.587786 -0.809017 0
    outer loop
      vertex 21.6134 13.284 0
      vertex 23.0884 14.3556 0
      vertex 21.6134 13.284 10.8
    endloop
  endfacet
  facet normal 0 -1 0
    outer loop
      vertex 24.9116 14.3556 0
      vertex 24.9116 14.3556 10.8
      vertex 23.0884 14.3556 10.8
    endloop
  endfacet
  facet normal 0 -1 0
    outer loop
      vertex 23.0884 14.3556 0
      vertex 24.9116 14.3556 0
      vertex 23.0884 14.3556 10.8
    endloop
  endfacet
  facet normal -0.587786 -0.809017 0
    outer loop
      vertex 26.3866 13.284 0
      vertex 26.3866 13.284 10.8
      vertex 24.9116 14.3556 10.8
    endloop
  endfacet
  facet normal -0.587786 -0.809017 0
    outer loop
      vertex 24.9116 14.3556 0
      vertex 26.3866 13.284 0
      vertex 24.9116 14.3556 10.8
    endloop
  endfacet
  facet normal -0.951056 -0.309017 0
    outer loop
      vertex 26.95 11.55 10.8
      vertex 26.3866 13.284 10.8
      vertex 26.95 11.55 0
    endloop
  endfacet
  facet normal -0.951056 -0.309017 0
    outer loop
      vertex 26.95 11.55 0
      vertex 26.3866 13.284 10.8
      vertex 26.3866 13.284 0
    endloop
  endfacet
  facet normal -0.951056 0.309017 0
    outer loop
      vertex 26.95 11.55 10.8
      vertex 26.95 11.55 0
      vertex 26.3866 9.81603 10.8
    endloop
  endfacet
  facet normal -0.951056 0.309017 0
    outer loop
      vertex 26.3866 9.81603 10.8
      vertex 26.95 11.55 0
      vertex 26.3866 9.81603 0
    endloop
  endfacet
  facet normal -0.587786 0.809017 0
    outer loop
      vertex 26.3866 9.81603 10.8
      vertex 26.3866 9.81603 0
      vertex 24.9116 8.74438 10.8
    endloop
  endfacet
  facet normal -0.587786 0.809017 0
    outer loop
      vertex 24.9116 8.74438 10.8
      vertex 26.3866 9.81603 0
      vertex 24.9116 8.74438 0
    endloop
  endfacet
  facet normal 0 1 0
    outer loop
      vertex 24.9116 8.74438 10.8
      vertex 24.9116 8.74438 0
      vertex 23.0884 8.74438 10.8
    endloop
  endfacet
  facet normal 0 1 0
    outer loop
      vertex 23.0884 8.74438 10.8
      vertex 24.9116 8.74438 0
      vertex 23.0884 8.74438 0
    endloop
  endfacet
  facet normal 0.587786 0.809017 0
    outer loop
      vertex 23.0884 8.74438 10.8
      vertex 23.0884 8.74438 0
      vertex 21.6134 9.81603 10.8
    endloop
  endfacet
  facet normal 0.587786 0.809017 0
    outer loop
      vertex 21.6134 9.81603 10.8
      vertex 23.0884 8.74438 0
      vertex 21.6134 9.81603 0
    endloop
  endfacet
  facet normal 0.951056 0.309017 0
    outer loop
      vertex 45.45 11.55 10.8
      vertex 46.0134 9.81603 10.8
      vertex 46.0134 9.81603 0
    endloop
  endfacet
  facet normal 0.951056 0.309017 0
    outer loop
      vertex 45.45 11.55 0
      vertex 45.45 11.55 10.8
      vertex 46.0134 9.81603 0
    endloop
  endfacet
  facet normal 0.951056 -0.309017 0
    outer loop
      vertex 46.0134 13.284 0
      vertex 46.0134 13.284 10.8
      vertex 45.45 11.55 10.8
    endloop
  endfacet
  facet normal 0.951056 -0.309017 0
    outer loop
      vertex 45.45 11.55 0
      vertex 46.0134 13.284 0
      vertex 45.45 11.55 10.8
    endloop
  endfacet
  facet normal 0.587786 -0.809017 0
    outer loop
      vertex 47.4884 14.3556 0
      vertex 47.4884 14.3556 10.8
      vertex 46.0134 13.284 10.8
    endloop
  endfacet
  facet normal 0.587786 -0.809017 0
    outer loop
      vertex 46.0134 13.284 0
      vertex 47.4884 14.3556 0
      vertex 46.0134 13.284 10.8
    endloop
  endfacet
  facet normal 0 -1 0
    outer loop
      vertex 49.3116 14.3556 0
      vertex 49.3116 14.3556 10.8
      vertex 47.4884 14.3556 10.8
    endloop
  endfacet
  facet normal 0 -1 0
    outer loop
      vertex 47.4884 14.3556 0
      vertex 49.3116 14.3556 0
      vertex 47.4884 14.3556 10.8
    endloop
  endfacet
  facet normal -0.587786 -0.809017 0
    outer loop
      vertex 50.7866 13.284 0
      vertex 50.7866 13.284 10.8
      vertex 49.3116 14.3556 10.8
    endloop
  endfacet
  facet normal -0.587786 -0.809017 0
    outer loop
      vertex 49.3116 14.3556 0
      vertex 50.7866 13.284 0
      vertex 49.3116 14.3556 10.8
    endloop
  endfacet
  facet normal -0.951056 -0.309017 0
    outer loop
      vertex 51.35 11.55 10.8
      vertex 50.7866 13.284 10.8
      vertex 51.35 11.55 0
    endloop
  endfacet
  facet normal -0.951056 -0.309017 0
    outer loop
      vertex 51.35 11.55 0
      vertex 50.7866 13.284 10.8
      vertex 50.7866 13.284 0
    endloop
  endfacet
  facet normal -0.951056 0.309017 0
    outer loop
      vertex 51.35 11.55 10.8
      vertex 51.35 11.55 0
      vertex 50.7866 9.81603 10.8
    endloop
  endfacet
  facet normal -0.951056 0.309017 0
    outer loop
      vertex 50.7866 9.81603 10.8
      vertex 51.35 11.55 0
      vertex 50.7866 9.81603 0
    endloop
  endfacet
  facet normal -0.587786 0.809017 0
    outer loop
      vertex 50.7866 9.81603 10.8
      vertex 50.7866 9.81603 0
      vertex 49.3116 8.74438 10.8
    endloop
  endfacet
  facet normal -0.587786 0.809017 0
    outer loop
      vertex 49.3116 8.74438 10.8
      vertex 50.7866 9.81603 0
      vertex 49.3116 8.74438 0
    endloop
  endfacet
  facet normal 0 1 0
    outer loop
      vertex 49.3116 8.74438 10.8
      vertex 49.3116 8.74438 0
      vertex 47.4884 8.74438 10.8
    endloop
  endfacet
  facet normal 0 1 0
    outer loop
      vertex 47.4884 8.74438 10.8
      vertex 49.3116 8.74438 0
      vertex 47.4884 8.74438 0
    endloop
  endfacet
  facet normal 0.587786 0.809017 0
    outer loop
      vertex 47.4884 8.74438 10.8
      vertex 47.4884 8.74438 0
      vertex 46.0134 9.81603 10.8
    endloop
  endfacet
  facet normal 0.587786 0.809017 0
    outer loop
      vertex 46.0134 9.81603 10.8
      vertex 47.4884 8.74438 0
      vertex 46.0134 9.81603 0
    endloop
  endfacet
  facet normal -1 0 0
    outer loop
      vertex 51.35 26.0738 15.1
      vertex 51.35 26.0738 30
      vertex 51.35 30 30
    endloop
  endfacet
  facet normal -1 0 0
    outer loop
      vertex 51.35 26.0738 15.1
      vertex 51.35 30 30
      vertex 51.35 30 10.8
    endloop
  endfacet
  facet normal -1 0 0
    outer loop
      vertex 51.35 26.0738 15.1
      vertex 51.35 30 10.8
      vertex 51.35 19.6685 15.1
    endloop
  endfacet
  facet normal -1 0 0
    outer loop
      vertex 51.35 30 10.8
      vertex 51.35 19.6685 10.8
      vertex 51.35 19.6685 15.1
    endloop
  endfacet
  facet normal 0 0 1
    outer loop
      vertex 43.1232 11.6443 10.8
      vertex 44.3363 10.0857 10.8
      vertex 45.9898 9.00536 10.8
    endloop
  endfacet
  facet normal 0 0 1
    outer loop
      vertex 47.4884 8.74438 10.8
      vertex 43.1232 11.6443 10.8
      vertex 45.9898 9.00536 10.8
    endloop
  endfacet
  facet normal 0 0 1
    outer loop
      vertex 50.7866 9.81603 10.8
      vertex 49.3116 8.74438 10.8
      vertex 49.8729 8.6836 10.8
    endloop
  endfacet
  facet normal 0 0 1
    outer loop
      vertex 47.4884 14.3556 10.8
      vertex 49.3116 14.3556 10.8
      vertex 54.0749 16.4482 10.8
    endloop
  endfacet
  facet normal 0 0 1
    outer loop
      vertex 51.6817 19.523 10.8
      vertex 43.1232 11.6443 10.8
      vertex 53.1348 18.1853 10.8
    endloop
  endfacet
  facet normal 0 0 1
    outer loop
      vertex 51.35 19.6685 10.8
      vertex 43.1232 11.6443 10.8
      vertex 51.6817 19.523 10.8
    endloop
  endfacet
  facet normal 0 0 1
    outer loop
      vertex 51.35 30 10.8
      vertex 43.1232 11.6443 10.8
      vertex 51.35 19.6685 10.8
    endloop
  endfacet
  facet normal 0 0 1
    outer loop
      vertex 45.45 19.642 10.8
      vertex 43.1232 11.6443 10.8
      vertex 51.35 30 10.8
    endloop
  endfacet
  facet normal 0 0 1
    outer loop
      vertex 45.45 30 10.8
      vertex 45.45 19.642 10.8
      vertex 51.35 30 10.8
    endloop
  endfacet
  facet normal 0 0 1
    outer loop
      vertex 44.3363 18.9143 10.8
      vertex 43.1232 11.6443 10.8
      vertex 45.45 19.642 10.8
    endloop
  endfacet
  facet normal 0 0 1
    outer loop
      vertex 49.3116 8.74438 10.8
      vertex 47.4884 8.74438 10.8
      vertex 47.9045 8.52049 10.8
    endloop
  endfacet
  facet normal 0 0 1
    outer loop
      vertex 42.4818 15.4876 10.8
      vertex 43.1232 11.6443 10.8
      vertex 43.1232 17.3557 10.8
    endloop
  endfacet
  facet normal 0 0 1
    outer loop
      vertex 42.4818 13.5124 10.8
      vertex 43.1232 11.6443 10.8
      vertex 42.4818 15.4876 10.8
    endloop
  endfacet
  facet normal 0 0 1
    outer loop
      vertex 50.7866 9.81603 10.8
      vertex 49.8729 8.6836 10.8
      vertex 51.6817 9.477 10.8
    endloop
  endfacet
  facet normal 0 0 1
    outer loop
      vertex 49.3116 14.3556 10.8
      vertex 50.7866 13.284 10.8
      vertex 54.4 14.5 10.8
    endloop
  endfacet
  facet normal 0 0 1
    outer loop
      vertex 47.4884 14.3556 10.8
      vertex 43.1232 11.6443 10.8
      vertex 46.0134 13.284 10.8
    endloop
  endfacet
  facet normal 0 0 1
    outer loop
      vertex 50.7866 13.284 10.8
      vertex 51.35 11.55 10.8
      vertex 54.0749 12.5518 10.8
    endloop
  endfacet
  facet normal 0 0 1
    outer loop
      vertex 53.1348 18.1853 10.8
      vertex 43.1232 11.6443 10.8
      vertex 47.4884 14.3556 10.8
    endloop
  endfacet
  facet normal 0 0 1
    outer loop
      vertex 54.0749 16.4482 10.8
      vertex 49.3116 14.3556 10.8
      vertex 54.4 14.5 10.8
    endloop
  endfacet
  facet normal 0 0 1
    outer loop
      vertex 47.4884 14.3556 10.8
      vertex 54.0749 16.4482 10.8
      vertex 53.1348 18.1853 10.8
    endloop
  endfacet
  facet normal 0 0 1
    outer loop
      vertex 54.4 14.5 10.8
      vertex 50.7866 13.284 10.8
      vertex 54.0749 12.5518 10.8
    endloop
  endfacet
  facet normal 0 0 1
    outer loop
      vertex 54.0749 12.5518 10.8
      vertex 51.35 11.55 10.8
      vertex 53.1348 10.8147 10.8
    endloop
  endfacet
  facet normal 0 0 1
    outer loop
      vertex 53.1348 10.8147 10.8
      vertex 50.7866 9.81603 10.8
      vertex 51.6817 9.477 10.8
    endloop
  endfacet
  facet normal 0 0 1
    outer loop
      vertex 49.8729 8.6836 10.8
      vertex 49.3116 8.74438 10.8
      vertex 47.9045 8.52049 10.8
    endloop
  endfacet
  facet normal 0 0 1
    outer loop
      vertex 51.35 11.55 10.8
      vertex 50.7866 9.81603 10.8
      vertex 53.1348 10.8147 10.8
    endloop
  endfacet
  facet normal 0 0 1
    outer loop
      vertex 47.9045 8.52049 10.8
      vertex 47.4884 8.74438 10.8
      vertex 45.9898 9.00536 10.8
    endloop
  endfacet
  facet normal 0 0 1
    outer loop
      vertex 45.45 11.55 10.8
      vertex 46.0134 13.284 10.8
      vertex 43.1232 11.6443 10.8
    endloop
  endfacet
  facet normal 0 0 1
    outer loop
      vertex 44.3363 18.9143 10.8
      vertex 43.1232 17.3557 10.8
      vertex 43.1232 11.6443 10.8
    endloop
  endfacet
  facet normal 0 0 1
    outer loop
      vertex 47.4884 8.74438 10.8
      vertex 46.0134 9.81603 10.8
      vertex 43.1232 11.6443 10.8
    endloop
  endfacet
  facet normal 0 0 1
    outer loop
      vertex 46.0134 9.81603 10.8
      vertex 45.45 11.55 10.8
      vertex 43.1232 11.6443 10.8
    endloop
  endfacet
  facet normal 1 0 0
    outer loop
      vertex 45.45 30 10.8
      vertex 45.45 30 30
      vertex 45.45 26.0738 30
    endloop
  endfacet
  facet normal 1 0 0
    outer loop
      vertex 45.45 19.642 15.1
      vertex 45.45 30 10.8
      vertex 45.45 26.0738 15.1
    endloop
  endfacet
  facet normal 1 0 0
    outer loop
      vertex 45.45 26.0738 15.1
      vertex 45.45 30 10.8
      vertex 45.45 26.0738 30
    endloop
  endfacet
  facet normal 1 0 0
    outer loop
      vertex 45.45 19.642 10.8
      vertex 45.45 30 10.8
      vertex 45.45 19.642 15.1
    endloop
  endfacet
  facet normal -1 0 0
    outer loop
      vertex 26.95 26.0738 15.1
      vertex 26.95 26.0738 30
      vertex 26.95 30 30
    endloop
  endfacet
  facet normal -1 0 0
    outer loop
      vertex 26.95 26.0738 15.1
      vertex 26.95 30 30
      vertex 26.95 30 10.8
    endloop
  endfacet
  facet normal -1 0 0
    outer loop
      vertex 26.95 26.0738 15.1
      vertex 26.95 30 10.8
      vertex 26.95 19.6685 15.1
    endloop
  endfacet
  facet normal -1 0 0
    outer loop
      vertex 26.95 30 10.8
      vertex 26.95 19.6685 10.8
      vertex 26.95 19.6685 15.1
    endloop
  endfacet
  facet normal 0 0 1
    outer loop
      vertex 18.7232 11.6443 10.8
      vertex 19.9363 10.0857 10.8
      vertex 21.5898 9.00536 10.8
    endloop
  endfacet
  facet normal 0 0 1
    outer loop
      vertex 23.0884 8.74438 10.8
      vertex 18.7232 11.6443 10.8
      vertex 21.5898 9.00536 10.8
    endloop
  endfacet
  facet normal 0 0 1
    outer loop
      vertex 26.3866 9.81603 10.8
      vertex 24.9116 8.74438 10.8
      vertex 25.4729 8.6836 10.8
    endloop
  endfacet
  facet normal 0 0 1
    outer loop
      vertex 23.0884 14.3556 10.8
      vertex 24.9116 14.3556 10.8
      vertex 29.6749 16.4482 10.8
    endloop
  endfacet
  facet normal 0 0 1
    outer loop
      vertex 27.2817 19.523 10.8
      vertex 18.7232 11.6443 10.8
      vertex 28.7348 18.1853 10.8
    endloop
  endfacet
  facet normal 0 0 1
    outer loop
      vertex 26.95 19.6685 10.8
      vertex 18.7232 11.6443 10.8
      vertex 27.2817 19.523 10.8
    endloop
  endfacet
  facet normal 0 0 1
    outer loop
      vertex 26.95 30 10.8
      vertex 18.7232 11.6443 10.8
      vertex 26.95 19.6685 10.8
    endloop
  endfacet
  facet normal 0 0 1
    outer loop
      vertex 21.05 19.642 10.8
      vertex 18.7232 11.6443 10.8
      vertex 26.95 30 10.8
    endloop
  endfacet
  facet normal 0 0 1
    outer loop
      vertex 21.05 30 10.8
      vertex 21.05 19.642 10.8
      vertex 26.95 30 10.8
    endloop
  endfacet
  facet normal 0 0 1
    outer loop
      vertex 19.9363 18.9143 10.8
      vertex 18.7232 11.6443 10.8
      vertex 21.05 19.642 10.8
    endloop
  endfacet
  facet normal 0 0 1
    outer loop
      vertex 24.9116 8.74438 10.8
      vertex 23.0884 8.74438 10.8
      vertex 23.5045 8.52049 10.8
    endloop
  endfacet
  facet normal 0 0 1
    outer loop
      vertex 18.0818 15.4876 10.8
      vertex 18.7232 11.6443 10.8
      vertex 18.7232 17.3557 10.8
    endloop
  endfacet
  facet normal 0 0 1
    outer loop
      vertex 18.0818 13.5124 10.8
      vertex 18.7232 11.6443 10.8
      vertex 18.0818 15.4876 10.8
    endloop
  endfacet
  facet normal 0 0 1
    outer loop
      vertex 26.3866 9.81603 10.8
      vertex 25.4729 8.6836 10.8
      vertex 27.2817 9.477 10.8
    endloop
  endfacet
  facet normal 0 0 1
    outer loop
      vertex 24.9116 14.3556 10.8
      vertex 26.3866 13.284 10.8
      vertex 30 14.5 10.8
    endloop
  endfacet
  facet normal 0 0 1
    outer loop
      vertex 23.0884 14.3556 10.8
      vertex 18.7232 11.6443 10.8
      vertex 21.6134 13.284 10.8
    endloop
  endfacet
  facet normal 0 0 1
    outer loop
      vertex 26.3866 13.284 10.8
      vertex 26.95 11.55 10.8
      vertex 29.6749 12.5518 10.8
    endloop
  endfacet
  facet normal 0 0 1
    outer loop
      vertex 28.7348 18.1853 10.8
      vertex 18.7232 11.6443 10.8
      vertex 23.0884 14.3556 10.8
    endloop
  endfacet
  facet normal 0 0 1
    outer loop
      vertex 29.6749 16.4482 10.8
      vertex 24.9116 14.3556 10.8
      vertex 30 14.5 10.8
    endloop
  endfacet
  facet normal 0 0 1
    outer loop
      vertex 23.0884 14.3556 10.8
      vertex 29.6749 16.4482 10.8
      vertex 28.7348 18.1853 10.8
    endloop
  endfacet
  facet normal 0 0 1
    outer loop
      vertex 30 14.5 10.8
      vertex 26.3866 13.284 10.8
      vertex 29.6749 12.5518 10.8
    endloop
  endfacet
  facet normal 0 0 1
    outer loop
      vertex 29.6749 12.5518 10.8
      vertex 26.95 11.55 10.8
      vertex 28.7348 10.8147 10.8
    endloop
  endfacet
  facet normal 0 0 1
    outer loop
      vertex 28.7348 10.8147 10.8
      vertex 26.3866 9.81603 10.8
      vertex 27.2817 9.477 10.8
    endloop
  endfacet
  facet normal 0 0 1
    outer loop
      vertex 25.4729 8.6836 10.8
      vertex 24.9116 8.74438 10.8
      vertex 23.5045 8.52049 10.8
    endloop
  endfacet
  facet normal 0 0 1
    outer loop
      vertex 26.95 11.55 10.8
      vertex 26.3866 9.81603 10.8
      vertex 28.7348 10.8147 10.8
    endloop
  endfacet
  facet normal 0 0 1
    outer loop
      vertex 23.5045 8.52049 10.8
      vertex 23.0884 8.74438 10.8
      vertex 21.5898 9.00536 10.8
    endloop
  endfacet
  facet normal 0 0 1
    outer loop
      vertex 21.05 11.55 10.8
      vertex 21.6134 13.284 10.8
      vertex 18.7232 11.6443 10.8
    endloop
  endfacet
  facet normal 0 0 1
    outer loop
      vertex 19.9363 18.9143 10.8
      vertex 18.7232 17.3557 10.8
      vertex 18.7232 11.6443 10.8
    endloop
  endfacet
  facet normal 0 0 1
    outer loop
      vertex 23.0884 8.74438 10.8
      vertex 21.6134 9.81603 10.8
      vertex 18.7232 11.6443 10.8
    endloop
  endfacet
  facet normal 0 0 1
    outer loop
      vertex 21.6134 9.81603 10.8
      vertex 21.05 11.55 10.8
      vertex 18.7232 11.6443 10.8
    endloop
  endfacet
  facet normal 1 0 0
    outer loop
      vertex 21.05 30 10.8
      vertex 21.05 30 30
      vertex 21.05 26.0738 30
    endloop
  endfacet
  facet normal 1 0 0
    outer loop
      vertex 21.05 19.642 15.1
      vertex 21.05 30 10.8
      vertex 21.05 26.0738 15.1
    endloop
  endfacet
  facet normal 1 0 0
    outer loop
      vertex 21.05 26.0738 15.1
      vertex 21.05 30 10.8
      vertex 21.05 26.0738 30
    endloop
  endfacet
  facet normal 1 0 0
    outer loop
      vertex 21.05 19.642 10.8
      vertex 21.05 30 10.8
      vertex 21.05 19.642 15.1
    endloop
  endfacet
  facet normal 0.207912 -0.978148 0
    outer loop
      vertex 21.05 26.0738 15.1
      vertex 21.05 26.0738 30
      vertex 20.2918 25.9127 30
    endloop
  endfacet
  facet normal 0.207912 -0.978148 0
    outer loop
      vertex 20.2918 25.9127 15.1
      vertex 21.05 26.0738 15.1
      vertex 20.2918 25.9127 30
    endloop
  endfacet
  facet normal 0.406737 -0.913546 0
    outer loop
      vertex 20.2918 25.9127 15.1
      vertex 20.2918 25.9127 30
      vertex 18 24.8923 30
    endloop
  endfacet
  facet normal 0.406737 -0.913546 0
    outer loop
      vertex 18 24.8923 15.1
      vertex 20.2918 25.9127 15.1
      vertex 18 24.8923 30
    endloop
  endfacet
  facet normal 0.587785 -0.809017 0
    outer loop
      vertex 18 24.8923 15.1
      vertex 18 24.8923 30
      vertex 15.9704 23.4177 30
    endloop
  endfacet
  facet normal 0.587785 -0.809017 0
    outer loop
      vertex 15.9704 23.4177 15.1
      vertex 18 24.8923 15.1
      vertex 15.9704 23.4177 30
    endloop
  endfacet
  facet normal 0.743145 -0.669131 0
    outer loop
      vertex 15.9704 23.4177 15.1
      vertex 15.9704 23.4177 30
      vertex 14.2918 21.5534 30
    endloop
  endfacet
  facet normal 0.743145 -0.669131 0
    outer loop
      vertex 14.2918 21.5534 15.1
      vertex 15.9704 23.4177 15.1
      vertex 14.2918 21.5534 30
    endloop
  endfacet
  facet normal 0.866025 -0.5 0
    outer loop
      vertex 14.2918 21.5534 15.1
      vertex 14.2918 21.5534 30
      vertex 13.0375 19.3808 30
    endloop
  endfacet
  facet normal 0.866025 -0.5 0
    outer loop
      vertex 13.0375 19.3808 15.1
      vertex 14.2918 21.5534 15.1
      vertex 13.0375 19.3808 30
    endloop
  endfacet
  facet normal 0.951057 -0.309017 0
    outer loop
      vertex 13.0375 19.3808 15.1
      vertex 13.0375 19.3808 30
      vertex 12.2622 16.9949 30
    endloop
  endfacet
  facet normal 0.951057 -0.309017 0
    outer loop
      vertex 12.2622 16.9949 15.1
      vertex 13.0375 19.3808 15.1
      vertex 12.2622 16.9949 30
    endloop
  endfacet
  facet normal 0.994522 -0.104529 0
    outer loop
      vertex 12.2622 16.9949 15.1
      vertex 12.2622 16.9949 30
      vertex 12 14.5 30
    endloop
  endfacet
  facet normal 0.994522 -0.104529 0
    outer loop
      vertex 12 14.5 15.1
      vertex 12.2622 16.9949 15.1
      vertex 12 14.5 30
    endloop
  endfacet
  facet normal 0.994522 0.104529 0
    outer loop
      vertex 12 14.5 30
      vertex 12.2622 12.0051 30
      vertex 12.2622 12.0051 15.1
    endloop
  endfacet
  facet normal 0.994522 0.104529 0
    outer loop
      vertex 12 14.5 15.1
      vertex 12 14.5 30
      vertex 12.2622 12.0051 15.1
    endloop
  endfacet
  facet normal 0.951057 0.309017 0
    outer loop
      vertex 12.2622 12.0051 30
      vertex 13.0375 9.61916 30
      vertex 13.0375 9.61916 15.1
    endloop
  endfacet
  facet normal 0.951057 0.309017 0
    outer loop
      vertex 12.2622 12.0051 15.1
      vertex 12.2622 12.0051 30
      vertex 13.0375 9.61916 15.1
    endloop
  endfacet
  facet normal 0.866025 0.5 0
    outer loop
      vertex 13.0375 9.61916 30
      vertex 14.2918 7.44658 30
      vertex 14.2918 7.44658 15.1
    endloop
  endfacet
  facet normal 0.866025 0.5 0
    outer loop
      vertex 13.0375 9.61916 15.1
      vertex 13.0375 9.61916 30
      vertex 14.2918 7.44658 15.1
    endloop
  endfacet
  facet normal 0.743145 0.669131 0
    outer loop
      vertex 14.2918 7.44658 30
      vertex 15.9704 5.58226 30
      vertex 15.9704 5.58226 15.1
    endloop
  endfacet
  facet normal 0.743145 0.669131 0
    outer loop
      vertex 14.2918 7.44658 15.1
      vertex 14.2918 7.44658 30
      vertex 15.9704 5.58226 15.1
    endloop
  endfacet
  facet normal 0.587785 0.809017 0
    outer loop
      vertex 18 4.10769 30
      vertex 18 4.10769 15.1
      vertex 15.9704 5.58226 30
    endloop
  endfacet
  facet normal 0.587785 0.809017 0
    outer loop
      vertex 15.9704 5.58226 30
      vertex 18 4.10769 15.1
      vertex 15.9704 5.58226 15.1
    endloop
  endfacet
  facet normal 0.406737 0.913546 0
    outer loop
      vertex 20.2918 3.08732 30
      vertex 20.2918 3.08732 15.1
      vertex 18 4.10769 30
    endloop
  endfacet
  facet normal 0.406737 0.913546 0
    outer loop
      vertex 18 4.10769 30
      vertex 20.2918 3.08732 15.1
      vertex 18 4.10769 15.1
    endloop
  endfacet
  facet normal 0.207912 0.978148 0
    outer loop
      vertex 22.7457 2.56574 30
      vertex 22.7457 2.56574 15.1
      vertex 20.2918 3.08732 30
    endloop
  endfacet
  facet normal 0.207912 0.978148 0
    outer loop
      vertex 20.2918 3.08732 30
      vertex 22.7457 2.56574 15.1
      vertex 20.2918 3.08732 15.1
    endloop
  endfacet
  facet normal 0 1 0
    outer loop
      vertex 25.2543 2.56574 30
      vertex 25.2543 2.56574 15.1
      vertex 22.7457 2.56574 30
    endloop
  endfacet
  facet normal 0 1 0
    outer loop
      vertex 22.7457 2.56574 30
      vertex 25.2543 2.56574 15.1
      vertex 22.7457 2.56574 15.1
    endloop
  endfacet
  facet normal -0.207912 0.978148 0
    outer loop
      vertex 27.7082 3.08732 30
      vertex 27.7082 3.08732 15.1
      vertex 25.2543 2.56574 30
    endloop
  endfacet
  facet normal -0.207912 0.978148 0
    outer loop
      vertex 25.2543 2.56574 30
      vertex 27.7082 3.08732 15.1
      vertex 25.2543 2.56574 15.1
    endloop
  endfacet
  facet normal -0.406737 0.913546 0
    outer loop
      vertex 30 4.10769 30
      vertex 30 4.10769 15.1
      vertex 27.7082 3.08732 30
    endloop
  endfacet
  facet normal -0.406737 0.913546 0
    outer loop
      vertex 27.7082 3.08732 30
      vertex 30 4.10769 15.1
      vertex 27.7082 3.08732 15.1
    endloop
  endfacet
  facet normal -0.587785 0.809017 0
    outer loop
      vertex 32.0296 5.58226 30
      vertex 32.0296 5.58226 15.1
      vertex 30 4.10769 30
    endloop
  endfacet
  facet normal -0.587785 0.809017 0
    outer loop
      vertex 30 4.10769 30
      vertex 32.0296 5.58226 15.1
      vertex 30 4.10769 15.1
    endloop
  endfacet
  facet normal -0.743145 0.669131 0
    outer loop
      vertex 33.7082 7.44658 30
      vertex 33.7082 7.44658 15.1
      vertex 32.0296 5.58226 30
    endloop
  endfacet
  facet normal -0.743145 0.669131 0
    outer loop
      vertex 32.0296 5.58226 30
      vertex 33.7082 7.44658 15.1
      vertex 32.0296 5.58226 15.1
    endloop
  endfacet
  facet normal -0.866025 0.5 0
    outer loop
      vertex 34.9625 9.61916 30
      vertex 34.9625 9.61916 15.1
      vertex 33.7082 7.44658 30
    endloop
  endfacet
  facet normal -0.866025 0.5 0
    outer loop
      vertex 33.7082 7.44658 30
      vertex 34.9625 9.61916 15.1
      vertex 33.7082 7.44658 15.1
    endloop
  endfacet
  facet normal -0.951057 0.309017 0
    outer loop
      vertex 35.7378 12.0051 30
      vertex 35.7378 12.0051 15.1
      vertex 34.9625 9.61916 30
    endloop
  endfacet
  facet normal -0.951057 0.309017 0
    outer loop
      vertex 34.9625 9.61916 30
      vertex 35.7378 12.0051 15.1
      vertex 34.9625 9.61916 15.1
    endloop
  endfacet
  facet normal -0.994522 0.104529 0
    outer loop
      vertex 36 14.5 30
      vertex 36 14.5 15.1
      vertex 35.7378 12.0051 30
    endloop
  endfacet
  facet normal -0.994522 0.104529 0
    outer loop
      vertex 35.7378 12.0051 30
      vertex 36 14.5 15.1
      vertex 35.7378 12.0051 15.1
    endloop
  endfacet
  facet normal -0.994522 -0.104529 0
    outer loop
      vertex 36 14.5 30
      vertex 35.7378 16.9949 30
      vertex 36 14.5 15.1
    endloop
  endfacet
  facet normal -0.994522 -0.104529 0
    outer loop
      vertex 36 14.5 15.1
      vertex 35.7378 16.9949 30
      vertex 35.7378 16.9949 15.1
    endloop
  endfacet
  facet normal -0.951057 -0.309017 0
    outer loop
      vertex 35.7378 16.9949 30
      vertex 34.9625 19.3808 30
      vertex 35.7378 16.9949 15.1
    endloop
  endfacet
  facet normal -0.951057 -0.309017 0
    outer loop
      vertex 35.7378 16.9949 15.1
      vertex 34.9625 19.3808 30
      vertex 34.9625 19.3808 15.1
    endloop
  endfacet
  facet normal -0.866025 -0.5 0
    outer loop
      vertex 34.9625 19.3808 30
      vertex 33.7082 21.5534 30
      vertex 34.9625 19.3808 15.1
    endloop
  endfacet
  facet normal -0.866025 -0.5 0
    outer loop
      vertex 34.9625 19.3808 15.1
      vertex 33.7082 21.5534 30
      vertex 33.7082 21.5534 15.1
    endloop
  endfacet
  facet normal -0.743145 -0.669131 0
    outer loop
      vertex 33.7082 21.5534 30
      vertex 32.0296 23.4177 30
      vertex 33.7082 21.5534 15.1
    endloop
  endfacet
  facet normal -0.743145 -0.669131 0
    outer loop
      vertex 33.7082 21.5534 15.1
      vertex 32.0296 23.4177 30
      vertex 32.0296 23.4177 15.1
    endloop
  endfacet
  facet normal -0.587785 -0.809017 0
    outer loop
      vertex 32.0296 23.4177 15.1
      vertex 32.0296 23.4177 30
      vertex 30 24.8923 30
    endloop
  endfacet
  facet normal -0.587785 -0.809017 0
    outer loop
      vertex 30 24.8923 15.1
      vertex 32.0296 23.4177 15.1
      vertex 30 24.8923 30
    endloop
  endfacet
  facet normal -0.406737 -0.913546 0
    outer loop
      vertex 30 24.8923 15.1
      vertex 30 24.8923 30
      vertex 27.7082 25.9127 30
    endloop
  endfacet
  facet normal -0.406737 -0.913546 0
    outer loop
      vertex 27.7082 25.9127 15.1
      vertex 30 24.8923 15.1
      vertex 27.7082 25.9127 30
    endloop
  endfacet
  facet normal -0.207912 -0.978148 0
    outer loop
      vertex 27.7082 25.9127 15.1
      vertex 27.7082 25.9127 30
      vertex 26.95 26.0738 30
    endloop
  endfacet
  facet normal -0.207912 -0.978148 0
    outer loop
      vertex 26.95 26.0738 15.1
      vertex 27.7082 25.9127 15.1
      vertex 26.95 26.0738 30
    endloop
  endfacet
  facet normal 0.207912 -0.978148 0
    outer loop
      vertex 45.45 26.0738 15.1
      vertex 45.45 26.0738 30
      vertex 44.6918 25.9127 30
    endloop
  endfacet
  facet normal 0.207912 -0.978148 0
    outer loop
      vertex 44.6918 25.9127 15.1
      vertex 45.45 26.0738 15.1
      vertex 44.6918 25.9127 30
    endloop
  endfacet
  facet normal 0.406737 -0.913546 0
    outer loop
      vertex 44.6918 25.9127 15.1
      vertex 44.6918 25.9127 30
      vertex 42.4 24.8923 30
    endloop
  endfacet
  facet normal 0.406737 -0.913546 0
    outer loop
      vertex 42.4 24.8923 15.1
      vertex 44.6918 25.9127 15.1
      vertex 42.4 24.8923 30
    endloop
  endfacet
  facet normal 0.587785 -0.809017 0
    outer loop
      vertex 42.4 24.8923 15.1
      vertex 42.4 24.8923 30
      vertex 40.3704 23.4177 30
    endloop
  endfacet
  facet normal 0.587785 -0.809017 0
    outer loop
      vertex 40.3704 23.4177 15.1
      vertex 42.4 24.8923 15.1
      vertex 40.3704 23.4177 30
    endloop
  endfacet
  facet normal 0.743145 -0.669131 0
    outer loop
      vertex 40.3704 23.4177 15.1
      vertex 40.3704 23.4177 30
      vertex 38.6918 21.5534 30
    endloop
  endfacet
  facet normal 0.743145 -0.669131 0
    outer loop
      vertex 38.6918 21.5534 15.1
      vertex 40.3704 23.4177 15.1
      vertex 38.6918 21.5534 30
    endloop
  endfacet
  facet normal 0.866025 -0.5 0
    outer loop
      vertex 38.6918 21.5534 15.1
      vertex 38.6918 21.5534 30
      vertex 37.4375 19.3808 30
    endloop
  endfacet
  facet normal 0.866025 -0.5 0
    outer loop
      vertex 37.4375 19.3808 15.1
      vertex 38.6918 21.5534 15.1
      vertex 37.4375 19.3808 30
    endloop
  endfacet
  facet normal 0.951057 -0.309017 0
    outer loop
      vertex 37.4375 19.3808 15.1
      vertex 37.4375 19.3808 30
      vertex 36.6622 16.9949 30
    endloop
  endfacet
  facet normal 0.951057 -0.309017 0
    outer loop
      vertex 36.6622 16.9949 15.1
      vertex 37.4375 19.3808 15.1
      vertex 36.6622 16.9949 30
    endloop
  endfacet
  facet normal 0.994522 -0.104529 0
    outer loop
      vertex 36.6622 16.9949 15.1
      vertex 36.6622 16.9949 30
      vertex 36.4 14.5 30
    endloop
  endfacet
  facet normal 0.994522 -0.104529 0
    outer loop
      vertex 36.4 14.5 15.1
      vertex 36.6622 16.9949 15.1
      vertex 36.4 14.5 30
    endloop
  endfacet
  facet normal 0.994522 0.104529 0
    outer loop
      vertex 36.4 14.5 30
      vertex 36.6622 12.0051 30
      vertex 36.6622 12.0051 15.1
    endloop
  endfacet
  facet normal 0.994522 0.104529 0
    outer loop
      vertex 36.4 14.5 15.1
      vertex 36.4 14.5 30
      vertex 36.6622 12.0051 15.1
    endloop
  endfacet
  facet normal 0.951057 0.309017 0
    outer loop
      vertex 36.6622 12.0051 30
      vertex 37.4375 9.61916 30
      vertex 37.4375 9.61916 15.1
    endloop
  endfacet
  facet normal 0.951057 0.309017 0
    outer loop
      vertex 36.6622 12.0051 15.1
      vertex 36.6622 12.0051 30
      vertex 37.4375 9.61916 15.1
    endloop
  endfacet
  facet normal 0.866025 0.5 0
    outer loop
      vertex 37.4375 9.61916 30
      vertex 38.6918 7.44658 30
      vertex 38.6918 7.44658 15.1
    endloop
  endfacet
  facet normal 0.866025 0.5 0
    outer loop
      vertex 37.4375 9.61916 15.1
      vertex 37.4375 9.61916 30
      vertex 38.6918 7.44658 15.1
    endloop
  endfacet
  facet normal 0.743145 0.669131 0
    outer loop
      vertex 38.6918 7.44658 30
      vertex 40.3704 5.58226 30
      vertex 40.3704 5.58226 15.1
    endloop
  endfacet
  facet normal 0.743145 0.669131 0
    outer loop
      vertex 38.6918 7.44658 15.1
      vertex 38.6918 7.44658 30
      vertex 40.3704 5.58226 15.1
    endloop
  endfacet
  facet normal 0.587785 0.809017 0
    outer loop
      vertex 42.4 4.10769 30
      vertex 42.4 4.10769 15.1
      vertex 40.3704 5.58226 30
    endloop
  endfacet
  facet normal 0.587785 0.809017 0
    outer loop
      vertex 40.3704 5.58226 30
      vertex 42.4 4.10769 15.1
      vertex 40.3704 5.58226 15.1
    endloop
  endfacet
  facet normal 0.406737 0.913546 0
    outer loop
      vertex 44.6918 3.08732 30
      vertex 44.6918 3.08732 15.1
      vertex 42.4 4.10769 30
    endloop
  endfacet
  facet normal 0.406737 0.913546 0
    outer loop
      vertex 42.4 4.10769 30
      vertex 44.6918 3.08732 15.1
      vertex 42.4 4.10769 15.1
    endloop
  endfacet
  facet normal 0.207912 0.978148 0
    outer loop
      vertex 47.1457 2.56574 30
      vertex 47.1457 2.56574 15.1
      vertex 44.6918 3.08732 30
    endloop
  endfacet
  facet normal 0.207912 0.978148 0
    outer loop
      vertex 44.6918 3.08732 30
      vertex 47.1457 2.56574 15.1
      vertex 44.6918 3.08732 15.1
    endloop
  endfacet
  facet normal 0 1 0
    outer loop
      vertex 49.6543 2.56574 30
      vertex 49.6543 2.56574 15.1
      vertex 47.1457 2.56574 30
    endloop
  endfacet
  facet normal 0 1 0
    outer loop
      vertex 47.1457 2.56574 30
      vertex 49.6543 2.56574 15.1
      vertex 47.1457 2.56574 15.1
    endloop
  endfacet
  facet normal -0.207912 0.978148 0
    outer loop
      vertex 52.1082 3.08732 30
      vertex 52.1082 3.08732 15.1
      vertex 49.6543 2.56574 30
    endloop
  endfacet
  facet normal -0.207912 0.978148 0
    outer loop
      vertex 49.6543 2.56574 30
      vertex 52.1082 3.08732 15.1
      vertex 49.6543 2.56574 15.1
    endloop
  endfacet
  facet normal -0.406737 0.913546 0
    outer loop
      vertex 54.4 4.10769 30
      vertex 54.4 4.10769 15.1
      vertex 52.1082 3.08732 30
    endloop
  endfacet
  facet normal -0.406737 0.913546 0
    outer loop
      vertex 52.1082 3.08732 30
      vertex 54.4 4.10769 15.1
      vertex 52.1082 3.08732 15.1
    endloop
  endfacet
  facet normal -0.587785 0.809017 0
    outer loop
      vertex 56.4296 5.58226 30
      vertex 56.4296 5.58226 15.1
      vertex 54.4 4.10769 30
    endloop
  endfacet
  facet normal -0.587785 0.809017 0
    outer loop
      vertex 54.4 4.10769 30
      vertex 56.4296 5.58226 15.1
      vertex 54.4 4.10769 15.1
    endloop
  endfacet
  facet normal -0.743145 0.669131 0
    outer loop
      vertex 58.1082 7.44658 30
      vertex 58.1082 7.44658 15.1
      vertex 56.4296 5.58226 30
    endloop
  endfacet
  facet normal -0.743145 0.669131 0
    outer loop
      vertex 56.4296 5.58226 30
      vertex 58.1082 7.44658 15.1
      vertex 56.4296 5.58226 15.1
    endloop
  endfacet
  facet normal -0.866025 0.5 0
    outer loop
      vertex 59.3625 9.61916 30
      vertex 59.3625 9.61916 15.1
      vertex 58.1082 7.44658 30
    endloop
  endfacet
  facet normal -0.866025 0.5 0
    outer loop
      vertex 58.1082 7.44658 30
      vertex 59.3625 9.61916 15.1
      vertex 58.1082 7.44658 15.1
    endloop
  endfacet
  facet normal -0.951057 0.309017 0
    outer loop
      vertex 60.1378 12.0051 30
      vertex 60.1378 12.0051 15.1
      vertex 59.3625 9.61916 30
    endloop
  endfacet
  facet normal -0.951057 0.309017 0
    outer loop
      vertex 59.3625 9.61916 30
      vertex 60.1378 12.0051 15.1
      vertex 59.3625 9.61916 15.1
    endloop
  endfacet
  facet normal -0.994522 0.104529 0
    outer loop
      vertex 60.4 14.5 30
      vertex 60.4 14.5 15.1
      vertex 60.1378 12.0051 30
    endloop
  endfacet
  facet normal -0.994522 0.104529 0
    outer loop
      vertex 60.1378 12.0051 30
      vertex 60.4 14.5 15.1
      vertex 60.1378 12.0051 15.1
    endloop
  endfacet
  facet normal -0.994522 -0.104529 0
    outer loop
      vertex 60.4 14.5 30
      vertex 60.1378 16.9949 30
      vertex 60.4 14.5 15.1
    endloop
  endfacet
  facet normal -0.994522 -0.104529 0
    outer loop
      vertex 60.4 14.5 15.1
      vertex 60.1378 16.9949 30
      vertex 60.1378 16.9949 15.1
    endloop
  endfacet
  facet normal -0.951057 -0.309017 0
    outer loop
      vertex 60.1378 16.9949 30
      vertex 59.3625 19.3808 30
      vertex 60.1378 16.9949 15.1
    endloop
  endfacet
  facet normal -0.951057 -0.309017 0
    outer loop
      vertex 60.1378 16.9949 15.1
      vertex 59.3625 19.3808 30
      vertex 59.3625 19.3808 15.1
    endloop
  endfacet
  facet normal -0.866025 -0.5 0
    outer loop
      vertex 59.3625 19.3808 30
      vertex 58.1082 21.5534 30
      vertex 59.3625 19.3808 15.1
    endloop
  endfacet
  facet normal -0.866025 -0.5 0
    outer loop
      vertex 59.3625 19.3808 15.1
      vertex 58.1082 21.5534 30
      vertex 58.1082 21.5534 15.1
    endloop
  endfacet
  facet normal -0.743145 -0.669131 0
    outer loop
      vertex 58.1082 21.5534 30
      vertex 56.4296 23.4177 30
      vertex 58.1082 21.5534 15.1
    endloop
  endfacet
  facet normal -0.743145 -0.669131 0
    outer loop
      vertex 58.1082 21.5534 15.1
      vertex 56.4296 23.4177 30
      vertex 56.4296 23.4177 15.1
    endloop
  endfacet
  facet normal -0.587785 -0.809017 0
    outer loop
      vertex 56.4296 23.4177 15.1
      vertex 56.4296 23.4177 30
      vertex 54.4 24.8923 30
    endloop
  endfacet
  facet normal -0.587785 -0.809017 0
    outer loop
      vertex 54.4 24.8923 15.1
      vertex 56.4296 23.4177 15.1
      vertex 54.4 24.8923 30
    endloop
  endfacet
  facet normal -0.406737 -0.913546 0
    outer loop
      vertex 54.4 24.8923 15.1
      vertex 54.4 24.8923 30
      vertex 52.1082 25.9127 30
    endloop
  endfacet
  facet normal -0.406737 -0.913546 0
    outer loop
      vertex 52.1082 25.9127 15.1
      vertex 54.4 24.8923 15.1
      vertex 52.1082 25.9127 30
    endloop
  endfacet
  facet normal -0.207912 -0.978148 0
    outer loop
      vertex 52.1082 25.9127 15.1
      vertex 52.1082 25.9127 30
      vertex 51.35 26.0738 30
    endloop
  endfacet
  facet normal -0.207912 -0.978148 0
    outer loop
      vertex 51.35 26.0738 15.1
      vertex 52.1082 25.9127 15.1
      vertex 51.35 26.0738 30
    endloop
  endfacet
  facet normal -0.401696 -0.915773 0
    outer loop
      vertex 51.6817 19.523 10.8
      vertex 51.6817 19.523 15.1
      vertex 51.35 19.6685 15.1
    endloop
  endfacet
  facet normal -0.401696 -0.915773 0
    outer loop
      vertex 51.35 19.6685 10.8
      vertex 51.6817 19.523 10.8
      vertex 51.35 19.6685 15.1
    endloop
  endfacet
  facet normal 0 0 1
    outer loop
      vertex 36.6622 12.0051 15.1
      vertex 37.4375 9.61916 15.1
      vertex 38.6918 7.44658 15.1
    endloop
  endfacet
  facet normal 0 0 1
    outer loop
      vertex 42.4 4.10769 15.1
      vertex 36.6622 12.0051 15.1
      vertex 40.3704 5.58226 15.1
    endloop
  endfacet
  facet normal 0 0 1
    outer loop
      vertex 40.3704 5.58226 15.1
      vertex 36.6622 12.0051 15.1
      vertex 38.6918 7.44658 15.1
    endloop
  endfacet
  facet normal 0 0 1
    outer loop
      vertex 44.6918 3.08732 15.1
      vertex 36.6622 12.0051 15.1
      vertex 42.4 4.10769 15.1
    endloop
  endfacet
  facet normal 0 0 1
    outer loop
      vertex 47.1457 2.56574 15.1
      vertex 36.6622 12.0051 15.1
      vertex 44.6918 3.08732 15.1
    endloop
  endfacet
  facet normal 0 0 1
    outer loop
      vertex 49.6543 2.56574 15.1
      vertex 36.6622 12.0051 15.1
      vertex 47.1457 2.56574 15.1
    endloop
  endfacet
  facet normal 0 0 1
    outer loop
      vertex 52.1082 3.08732 15.1
      vertex 36.6622 12.0051 15.1
      vertex 49.6543 2.56574 15.1
    endloop
  endfacet
  facet normal 0 0 1
    outer loop
      vertex 54.4 4.10769 15.1
      vertex 36.6622 12.0051 15.1
      vertex 52.1082 3.08732 15.1
    endloop
  endfacet
  facet normal 0 0 1
    outer loop
      vertex 56.4296 5.58226 15.1
      vertex 36.6622 12.0051 15.1
      vertex 54.4 4.10769 15.1
    endloop
  endfacet
  facet normal 0 0 1
    outer loop
      vertex 45.9898 9.00536 15.1
      vertex 36.6622 12.0051 15.1
      vertex 56.4296 5.58226 15.1
    endloop
  endfacet
  facet normal 0 0 1
    outer loop
      vertex 45.9898 9.00536 15.1
      vertex 44.3363 10.0857 15.1
      vertex 36.6622 12.0051 15.1
    endloop
  endfacet
  facet normal 0 0 1
    outer loop
      vertex 51.6817 9.477 15.1
      vertex 49.8729 8.6836 15.1
      vertex 58.1082 7.44658 15.1
    endloop
  endfacet
  facet normal 0 0 1
    outer loop
      vertex 54.4 14.5 15.1
      vertex 54.0749 12.5518 15.1
      vertex 60.4 14.5 15.1
    endloop
  endfacet
  facet normal 0 0 1
    outer loop
      vertex 54.0749 12.5518 15.1
      vertex 53.1348 10.8147 15.1
      vertex 60.1378 12.0051 15.1
    endloop
  endfacet
  facet normal 0 0 1
    outer loop
      vertex 51.6817 19.523 15.1
      vertex 53.1348 18.1853 15.1
      vertex 58.1082 21.5534 15.1
    endloop
  endfacet
  facet normal 0 0 1
    outer loop
      vertex 56.4296 23.4177 15.1
      vertex 51.35 19.6685 15.1
      vertex 58.1082 21.5534 15.1
    endloop
  endfacet
  facet normal 0 0 1
    outer loop
      vertex 45.45 19.642 15.1
      vertex 45.45 26.0738 15.1
      vertex 44.3363 18.9143 15.1
    endloop
  endfacet
  facet normal 0 0 1
    outer loop
      vertex 51.35 19.6685 15.1
      vertex 51.6817 19.523 15.1
      vertex 58.1082 21.5534 15.1
    endloop
  endfacet
  facet normal 0 0 1
    outer loop
      vertex 44.3363 18.9143 15.1
      vertex 45.45 26.0738 15.1
      vertex 36.6622 12.0051 15.1
    endloop
  endfacet
  facet normal 0 0 1
    outer loop
      vertex 58.1082 21.5534 15.1
      vertex 53.1348 18.1853 15.1
      vertex 59.3625 19.3808 15.1
    endloop
  endfacet
  facet normal 0 0 1
    outer loop
      vertex 59.3625 19.3808 15.1
      vertex 54.0749 16.4482 15.1
      vertex 60.1378 16.9949 15.1
    endloop
  endfacet
  facet normal 0 0 1
    outer loop
      vertex 60.1378 16.9949 15.1
      vertex 54.4 14.5 15.1
      vertex 60.4 14.5 15.1
    endloop
  endfacet
  facet normal 0 0 1
    outer loop
      vertex 60.4 14.5 15.1
      vertex 54.0749 12.5518 15.1
      vertex 60.1378 12.0051 15.1
    endloop
  endfacet
  facet normal 0 0 1
    outer loop
      vertex 42.4818 13.5124 15.1
      vertex 42.4818 15.4876 15.1
      vertex 36.6622 12.0051 15.1
    endloop
  endfacet
  facet normal 0 0 1
    outer loop
      vertex 60.1378 12.0051 15.1
      vertex 53.1348 10.8147 15.1
      vertex 59.3625 9.61916 15.1
    endloop
  endfacet
  facet normal 0 0 1
    outer loop
      vertex 59.3625 9.61916 15.1
      vertex 51.6817 9.477 15.1
      vertex 58.1082 7.44658 15.1
    endloop
  endfacet
  facet normal 0 0 1
    outer loop
      vertex 58.1082 7.44658 15.1
      vertex 49.8729 8.6836 15.1
      vertex 56.4296 5.58226 15.1
    endloop
  endfacet
  facet normal 0 0 1
    outer loop
      vertex 49.8729 8.6836 15.1
      vertex 47.9045 8.52049 15.1
      vertex 56.4296 5.58226 15.1
    endloop
  endfacet
  facet normal 0 0 1
    outer loop
      vertex 47.9045 8.52049 15.1
      vertex 45.9898 9.00536 15.1
      vertex 56.4296 5.58226 15.1
    endloop
  endfacet
  facet normal 0 0 1
    outer loop
      vertex 44.3363 10.0857 15.1
      vertex 43.1232 11.6443 15.1
      vertex 36.6622 12.0051 15.1
    endloop
  endfacet
  facet normal 0 0 1
    outer loop
      vertex 53.1348 10.8147 15.1
      vertex 51.6817 9.477 15.1
      vertex 59.3625 9.61916 15.1
    endloop
  endfacet
  facet normal 0 0 1
    outer loop
      vertex 54.0749 16.4482 15.1
      vertex 54.4 14.5 15.1
      vertex 60.1378 16.9949 15.1
    endloop
  endfacet
  facet normal 0 0 1
    outer loop
      vertex 53.1348 18.1853 15.1
      vertex 54.0749 16.4482 15.1
      vertex 59.3625 19.3808 15.1
    endloop
  endfacet
  facet normal 0 0 1
    outer loop
      vertex 43.1232 11.6443 15.1
      vertex 42.4818 13.5124 15.1
      vertex 36.6622 12.0051 15.1
    endloop
  endfacet
  facet normal 0 0 1
    outer loop
      vertex 44.3363 18.9143 15.1
      vertex 36.6622 12.0051 15.1
      vertex 43.1232 17.3557 15.1
    endloop
  endfacet
  facet normal 0 0 1
    outer loop
      vertex 44.6918 25.9127 15.1
      vertex 36.6622 12.0051 15.1
      vertex 45.45 26.0738 15.1
    endloop
  endfacet
  facet normal 0 0 1
    outer loop
      vertex 42.4 24.8923 15.1
      vertex 36.6622 12.0051 15.1
      vertex 44.6918 25.9127 15.1
    endloop
  endfacet
  facet normal 0 0 1
    outer loop
      vertex 40.3704 23.4177 15.1
      vertex 36.6622 12.0051 15.1
      vertex 42.4 24.8923 15.1
    endloop
  endfacet
  facet normal 0 0 1
    outer loop
      vertex 38.6918 21.5534 15.1
      vertex 36.6622 12.0051 15.1
      vertex 40.3704 23.4177 15.1
    endloop
  endfacet
  facet normal 0 0 1
    outer loop
      vertex 37.4375 19.3808 15.1
      vertex 36.6622 12.0051 15.1
      vertex 38.6918 21.5534 15.1
    endloop
  endfacet
  facet normal 0 0 1
    outer loop
      vertex 36.6622 16.9949 15.1
      vertex 36.6622 12.0051 15.1
      vertex 37.4375 19.3808 15.1
    endloop
  endfacet
  facet normal 0 0 1
    outer loop
      vertex 36.4 14.5 15.1
      vertex 36.6622 12.0051 15.1
      vertex 36.6622 16.9949 15.1
    endloop
  endfacet
  facet normal 0 0 1
    outer loop
      vertex 42.4818 15.4876 15.1
      vertex 43.1232 17.3557 15.1
      vertex 36.6622 12.0051 15.1
    endloop
  endfacet
  facet normal 0 0 1
    outer loop
      vertex 51.35 26.0738 15.1
      vertex 54.4 24.8923 15.1
      vertex 52.1082 25.9127 15.1
    endloop
  endfacet
  facet normal 0 0 1
    outer loop
      vertex 51.35 26.0738 15.1
      vertex 56.4296 23.4177 15.1
      vertex 54.4 24.8923 15.1
    endloop
  endfacet
  facet normal 0 0 1
    outer loop
      vertex 51.35 26.0738 15.1
      vertex 51.35 19.6685 15.1
      vertex 56.4296 23.4177 15.1
    endloop
  endfacet
  facet normal 0.78914 0.614213 0
    outer loop
      vertex 43.1232 11.6443 15.1
      vertex 44.3363 10.0857 15.1
      vertex 44.3363 10.0857 10.8
    endloop
  endfacet
  facet normal 0.78914 0.614213 0
    outer loop
      vertex 43.1232 11.6443 10.8
      vertex 43.1232 11.6443 15.1
      vertex 44.3363 10.0857 10.8
    endloop
  endfacet
  facet normal 0.945817 0.324699 0
    outer loop
      vertex 42.4818 13.5124 15.1
      vertex 43.1232 11.6443 15.1
      vertex 43.1232 11.6443 10.8
    endloop
  endfacet
  facet normal 0.945817 0.324699 0
    outer loop
      vertex 42.4818 13.5124 10.8
      vertex 42.4818 13.5124 15.1
      vertex 43.1232 11.6443 10.8
    endloop
  endfacet
  facet normal 1 0 0
    outer loop
      vertex 42.4818 15.4876 10.8
      vertex 42.4818 15.4876 15.1
      vertex 42.4818 13.5124 15.1
    endloop
  endfacet
  facet normal 1 0 0
    outer loop
      vertex 42.4818 13.5124 10.8
      vertex 42.4818 15.4876 10.8
      vertex 42.4818 13.5124 15.1
    endloop
  endfacet
  facet normal 0.945817 -0.324699 0
    outer loop
      vertex 43.1232 17.3557 10.8
      vertex 43.1232 17.3557 15.1
      vertex 42.4818 15.4876 15.1
    endloop
  endfacet
  facet normal 0.945817 -0.324699 0
    outer loop
      vertex 42.4818 15.4876 10.8
      vertex 43.1232 17.3557 10.8
      vertex 42.4818 15.4876 15.1
    endloop
  endfacet
  facet normal 0.78914 -0.614213 0
    outer loop
      vertex 44.3363 18.9143 10.8
      vertex 44.3363 18.9143 15.1
      vertex 43.1232 17.3557 15.1
    endloop
  endfacet
  facet normal 0.78914 -0.614213 0
    outer loop
      vertex 43.1232 17.3557 10.8
      vertex 44.3363 18.9143 10.8
      vertex 43.1232 17.3557 15.1
    endloop
  endfacet
  facet normal 0.546949 -0.837166 0
    outer loop
      vertex 45.45 19.642 10.8
      vertex 45.45 19.642 15.1
      vertex 44.3363 18.9143 15.1
    endloop
  endfacet
  facet normal 0.546949 -0.837166 0
    outer loop
      vertex 44.3363 18.9143 10.8
      vertex 45.45 19.642 10.8
      vertex 44.3363 18.9143 15.1
    endloop
  endfacet
  facet normal -0.677282 -0.735724 0
    outer loop
      vertex 53.1348 18.1853 10.8
      vertex 53.1348 18.1853 15.1
      vertex 51.6817 19.523 15.1
    endloop
  endfacet
  facet normal -0.677282 -0.735724 0
    outer loop
      vertex 51.6817 19.523 10.8
      vertex 53.1348 18.1853 10.8
      vertex 51.6817 19.523 15.1
    endloop
  endfacet
  facet normal -0.879474 -0.475947 0
    outer loop
      vertex 54.0749 16.4482 15.1
      vertex 53.1348 18.1853 15.1
      vertex 54.0749 16.4482 10.8
    endloop
  endfacet
  facet normal -0.879474 -0.475947 0
    outer loop
      vertex 54.0749 16.4482 10.8
      vertex 53.1348 18.1853 15.1
      vertex 53.1348 18.1853 10.8
    endloop
  endfacet
  facet normal -0.986361 -0.164595 0
    outer loop
      vertex 54.4 14.5 15.1
      vertex 54.0749 16.4482 15.1
      vertex 54.4 14.5 10.8
    endloop
  endfacet
  facet normal -0.986361 -0.164595 0
    outer loop
      vertex 54.4 14.5 10.8
      vertex 54.0749 16.4482 15.1
      vertex 54.0749 16.4482 10.8
    endloop
  endfacet
  facet normal -0.986361 0.164595 0
    outer loop
      vertex 54.4 14.5 15.1
      vertex 54.4 14.5 10.8
      vertex 54.0749 12.5518 15.1
    endloop
  endfacet
  facet normal -0.986361 0.164595 0
    outer loop
      vertex 54.0749 12.5518 15.1
      vertex 54.4 14.5 10.8
      vertex 54.0749 12.5518 10.8
    endloop
  endfacet
  facet normal -0.879474 0.475947 0
    outer loop
      vertex 54.0749 12.5518 15.1
      vertex 54.0749 12.5518 10.8
      vertex 53.1348 10.8147 15.1
    endloop
  endfacet
  facet normal -0.879474 0.475947 0
    outer loop
      vertex 53.1348 10.8147 15.1
      vertex 54.0749 12.5518 10.8
      vertex 53.1348 10.8147 10.8
    endloop
  endfacet
  facet normal -0.677282 0.735724 0
    outer loop
      vertex 53.1348 10.8147 15.1
      vertex 53.1348 10.8147 10.8
      vertex 51.6817 9.477 15.1
    endloop
  endfacet
  facet normal -0.677282 0.735724 0
    outer loop
      vertex 51.6817 9.477 15.1
      vertex 53.1348 10.8147 10.8
      vertex 51.6817 9.477 10.8
    endloop
  endfacet
  facet normal -0.401696 0.915773 0
    outer loop
      vertex 51.6817 9.477 15.1
      vertex 51.6817 9.477 10.8
      vertex 49.8729 8.6836 15.1
    endloop
  endfacet
  facet normal -0.401696 0.915773 0
    outer loop
      vertex 49.8729 8.6836 15.1
      vertex 51.6817 9.477 10.8
      vertex 49.8729 8.6836 10.8
    endloop
  endfacet
  facet normal -0.0825792 0.996585 0
    outer loop
      vertex 49.8729 8.6836 15.1
      vertex 49.8729 8.6836 10.8
      vertex 47.9045 8.52049 15.1
    endloop
  endfacet
  facet normal -0.0825792 0.996585 0
    outer loop
      vertex 47.9045 8.52049 15.1
      vertex 49.8729 8.6836 10.8
      vertex 47.9045 8.52049 10.8
    endloop
  endfacet
  facet normal 0.245485 0.9694 0
    outer loop
      vertex 47.9045 8.52049 15.1
      vertex 47.9045 8.52049 10.8
      vertex 45.9898 9.00536 15.1
    endloop
  endfacet
  facet normal 0.245485 0.9694 0
    outer loop
      vertex 45.9898 9.00536 15.1
      vertex 47.9045 8.52049 10.8
      vertex 45.9898 9.00536 10.8
    endloop
  endfacet
  facet normal 0.546949 0.837166 0
    outer loop
      vertex 45.9898 9.00536 15.1
      vertex 45.9898 9.00536 10.8
      vertex 44.3363 10.0857 15.1
    endloop
  endfacet
  facet normal 0.546949 0.837166 0
    outer loop
      vertex 44.3363 10.0857 15.1
      vertex 45.9898 9.00536 10.8
      vertex 44.3363 10.0857 10.8
    endloop
  endfacet
  facet normal -0.401696 -0.915773 0
    outer loop
      vertex 27.2817 19.523 10.8
      vertex 27.2817 19.523 15.1
      vertex 26.95 19.6685 15.1
    endloop
  endfacet
  facet normal -0.401696 -0.915773 0
    outer loop
      vertex 26.95 19.6685 10.8
      vertex 27.2817 19.523 10.8
      vertex 26.95 19.6685 15.1
    endloop
  endfacet
  facet normal 0 0 1
    outer loop
      vertex 12.2622 12.0051 15.1
      vertex 13.0375 9.61916 15.1
      vertex 14.2918 7.44658 15.1
    endloop
  endfacet
  facet normal 0 0 1
    outer loop
      vertex 18 4.10769 15.1
      vertex 12.2622 12.0051 15.1
      vertex 15.9704 5.58226 15.1
    endloop
  endfacet
  facet normal 0 0 1
    outer loop
      vertex 15.9704 5.58226 15.1
      vertex 12.2622 12.0051 15.1
      vertex 14.2918 7.44658 15.1
    endloop
  endfacet
  facet normal 0 0 1
    outer loop
      vertex 20.2918 3.08732 15.1
      vertex 12.2622 12.0051 15.1
      vertex 18 4.10769 15.1
    endloop
  endfacet
  facet normal 0 0 1
    outer loop
      vertex 22.7457 2.56574 15.1
      vertex 12.2622 12.0051 15.1
      vertex 20.2918 3.08732 15.1
    endloop
  endfacet
  facet normal 0 0 1
    outer loop
      vertex 25.2543 2.56574 15.1
      vertex 12.2622 12.0051 15.1
      vertex 22.7457 2.56574 15.1
    endloop
  endfacet
  facet normal 0 0 1
    outer loop
      vertex 27.7082 3.08732 15.1
      vertex 12.2622 12.0051 15.1
      vertex 25.2543 2.56574 15.1
    endloop
  endfacet
  facet normal 0 0 1
    outer loop
      vertex 30 4.10769 15.1
      vertex 12.2622 12.0051 15.1
      vertex 27.7082 3.08732 15.1
    endloop
  endfacet
  facet normal 0 0 1
    outer loop
      vertex 32.0296 5.58226 15.1
      vertex 12.2622 12.0051 15.1
      vertex 30 4.10769 15.1
    endloop
  endfacet
  facet normal 0 0 1
    outer loop
      vertex 21.5898 9.00536 15.1
      vertex 12.2622 12.0051 15.1
      vertex 32.0296 5.58226 15.1
    endloop
  endfacet
  facet normal 0 0 1
    outer loop
      vertex 21.5898 9.00536 15.1
      vertex 19.9363 10.0857 15.1
      vertex 12.2622 12.0051 15.1
    endloop
  endfacet
  facet normal 0 0 1
    outer loop
      vertex 27.2817 9.477 15.1
      vertex 25.4729 8.6836 15.1
      vertex 33.7082 7.44658 15.1
    endloop
  endfacet
  facet normal 0 0 1
    outer loop
      vertex 30 14.5 15.1
      vertex 29.6749 12.5518 15.1
      vertex 36 14.5 15.1
    endloop
  endfacet
  facet normal 0 0 1
    outer loop
      vertex 29.6749 12.5518 15.1
      vertex 28.7348 10.8147 15.1
      vertex 35.7378 12.0051 15.1
    endloop
  endfacet
  facet normal 0 0 1
    outer loop
      vertex 27.2817 19.523 15.1
      vertex 28.7348 18.1853 15.1
      vertex 33.7082 21.5534 15.1
    endloop
  endfacet
  facet normal 0 0 1
    outer loop
      vertex 32.0296 23.4177 15.1
      vertex 26.95 19.6685 15.1
      vertex 33.7082 21.5534 15.1
    endloop
  endfacet
  facet normal 0 0 1
    outer loop
      vertex 21.05 19.642 15.1
      vertex 21.05 26.0738 15.1
      vertex 19.9363 18.9143 15.1
    endloop
  endfacet
  facet normal 0 0 1
    outer loop
      vertex 26.95 19.6685 15.1
      vertex 27.2817 19.523 15.1
      vertex 33.7082 21.5534 15.1
    endloop
  endfacet
  facet normal 0 0 1
    outer loop
      vertex 19.9363 18.9143 15.1
      vertex 21.05 26.0738 15.1
      vertex 12.2622 12.0051 15.1
    endloop
  endfacet
  facet normal 0 0 1
    outer loop
      vertex 33.7082 21.5534 15.1
      vertex 28.7348 18.1853 15.1
      vertex 34.9625 19.3808 15.1
    endloop
  endfacet
  facet normal 0 0 1
    outer loop
      vertex 34.9625 19.3808 15.1
      vertex 29.6749 16.4482 15.1
      vertex 35.7378 16.9949 15.1
    endloop
  endfacet
  facet normal 0 0 1
    outer loop
      vertex 35.7378 16.9949 15.1
      vertex 30 14.5 15.1
      vertex 36 14.5 15.1
    endloop
  endfacet
  facet normal 0 0 1
    outer loop
      vertex 36 14.5 15.1
      vertex 29.6749 12.5518 15.1
      vertex 35.7378 12.0051 15.1
    endloop
  endfacet
  facet normal 0 0 1
    outer loop
      vertex 18.0818 13.5124 15.1
      vertex 18.0818 15.4876 15.1
      vertex 12.2622 12.0051 15.1
    endloop
  endfacet
  facet normal 0 0 1
    outer loop
      vertex 35.7378 12.0051 15.1
      vertex 28.7348 10.8147 15.1
      vertex 34.9625 9.61916 15.1
    endloop
  endfacet
  facet normal 0 0 1
    outer loop
      vertex 34.9625 9.61916 15.1
      vertex 27.2817 9.477 15.1
      vertex 33.7082 7.44658 15.1
    endloop
  endfacet
  facet normal 0 0 1
    outer loop
      vertex 33.7082 7.44658 15.1
      vertex 25.4729 8.6836 15.1
      vertex 32.0296 5.58226 15.1
    endloop
  endfacet
  facet normal 0 0 1
    outer loop
      vertex 25.4729 8.6836 15.1
      vertex 23.5045 8.52049 15.1
      vertex 32.0296 5.58226 15.1
    endloop
  endfacet
  facet normal 0 0 1
    outer loop
      vertex 23.5045 8.52049 15.1
      vertex 21.5898 9.00536 15.1
      vertex 32.0296 5.58226 15.1
    endloop
  endfacet
  facet normal 0 0 1
    outer loop
      vertex 19.9363 10.0857 15.1
      vertex 18.7232 11.6443 15.1
      vertex 12.2622 12.0051 15.1
    endloop
  endfacet
  facet normal 0 0 1
    outer loop
      vertex 28.7348 10.8147 15.1
      vertex 27.2817 9.477 15.1
      vertex 34.9625 9.61916 15.1
    endloop
  endfacet
  facet normal 0 0 1
    outer loop
      vertex 29.6749 16.4482 15.1
      vertex 30 14.5 15.1
      vertex 35.7378 16.9949 15.1
    endloop
  endfacet
  facet normal 0 0 1
    outer loop
      vertex 28.7348 18.1853 15.1
      vertex 29.6749 16.4482 15.1
      vertex 34.9625 19.3808 15.1
    endloop
  endfacet
  facet normal 0 0 1
    outer loop
      vertex 18.7232 11.6443 15.1
      vertex 18.0818 13.5124 15.1
      vertex 12.2622 12.0051 15.1
    endloop
  endfacet
  facet normal 0 0 1
    outer loop
      vertex 19.9363 18.9143 15.1
      vertex 12.2622 12.0051 15.1
      vertex 18.7232 17.3557 15.1
    endloop
  endfacet
  facet normal 0 0 1
    outer loop
      vertex 20.2918 25.9127 15.1
      vertex 12.2622 12.0051 15.1
      vertex 21.05 26.0738 15.1
    endloop
  endfacet
  facet normal 0 0 1
    outer loop
      vertex 18 24.8923 15.1
      vertex 12.2622 12.0051 15.1
      vertex 20.2918 25.9127 15.1
    endloop
  endfacet
  facet normal 0 0 1
    outer loop
      vertex 15.9704 23.4177 15.1
      vertex 12.2622 12.0051 15.1
      vertex 18 24.8923 15.1
    endloop
  endfacet
  facet normal 0 0 1
    outer loop
      vertex 14.2918 21.5534 15.1
      vertex 12.2622 12.0051 15.1
      vertex 15.9704 23.4177 15.1
    endloop
  endfacet
  facet normal 0 0 1
    outer loop
      vertex 13.0375 19.3808 15.1
      vertex 12.2622 12.0051 15.1
      vertex 14.2918 21.5534 15.1
    endloop
  endfacet
  facet normal 0 0 1
    outer loop
      vertex 12.2622 16.9949 15.1
      vertex 12.2622 12.0051 15.1
      vertex 13.0375 19.3808 15.1
    endloop
  endfacet
  facet normal 0 0 1
    outer loop
      vertex 12 14.5 15.1
      vertex 12.2622 12.0051 15.1
      vertex 12.2622 16.9949 15.1
    endloop
  endfacet
  facet normal 0 0 1
    outer loop
      vertex 18.0818 15.4876 15.1
      vertex 18.7232 17.3557 15.1
      vertex 12.2622 12.0051 15.1
    endloop
  endfacet
  facet normal 0 0 1
    outer loop
      vertex 26.95 26.0738 15.1
      vertex 30 24.8923 15.1
      vertex 27.7082 25.9127 15.1
    endloop
  endfacet
  facet normal 0 0 1
    outer loop
      vertex 26.95 26.0738 15.1
      vertex 32.0296 23.4177 15.1
      vertex 30 24.8923 15.1
    endloop
  endfacet
  facet normal 0 0 1
    outer loop
      vertex 26.95 26.0738 15.1
      vertex 26.95 19.6685 15.1
      vertex 32.0296 23.4177 15.1
    endloop
  endfacet
  facet normal 0.78914 0.614213 0
    outer loop
      vertex 18.7232 11.6443 15.1
      vertex 19.9363 10.0857 15.1
      vertex 19.9363 10.0857 10.8
    endloop
  endfacet
  facet normal 0.78914 0.614213 0
    outer loop
      vertex 18.7232 11.6443 10.8
      vertex 18.7232 11.6443 15.1
      vertex 19.9363 10.0857 10.8
    endloop
  endfacet
  facet normal 0.945817 0.324699 0
    outer loop
      vertex 18.0818 13.5124 15.1
      vertex 18.7232 11.6443 15.1
      vertex 18.7232 11.6443 10.8
    endloop
  endfacet
  facet normal 0.945817 0.324699 0
    outer loop
      vertex 18.0818 13.5124 10.8
      vertex 18.0818 13.5124 15.1
      vertex 18.7232 11.6443 10.8
    endloop
  endfacet
  facet normal 1 0 0
    outer loop
      vertex 18.0818 15.4876 10.8
      vertex 18.0818 15.4876 15.1
      vertex 18.0818 13.5124 15.1
    endloop
  endfacet
  facet normal 1 0 0
    outer loop
      vertex 18.0818 13.5124 10.8
      vertex 18.0818 15.4876 10.8
      vertex 18.0818 13.5124 15.1
    endloop
  endfacet
  facet normal 0.945817 -0.324699 0
    outer loop
      vertex 18.7232 17.3557 10.8
      vertex 18.7232 17.3557 15.1
      vertex 18.0818 15.4876 15.1
    endloop
  endfacet
  facet normal 0.945817 -0.324699 0
    outer loop
      vertex 18.0818 15.4876 10.8
      vertex 18.7232 17.3557 10.8
      vertex 18.0818 15.4876 15.1
    endloop
  endfacet
  facet normal 0.78914 -0.614213 0
    outer loop
      vertex 19.9363 18.9143 10.8
      vertex 19.9363 18.9143 15.1
      vertex 18.7232 17.3557 15.1
    endloop
  endfacet
  facet normal 0.78914 -0.614213 0
    outer loop
      vertex 18.7232 17.3557 10.8
      vertex 19.9363 18.9143 10.8
      vertex 18.7232 17.3557 15.1
    endloop
  endfacet
  facet normal 0.546949 -0.837166 0
    outer loop
      vertex 21.05 19.642 10.8
      vertex 21.05 19.642 15.1
      vertex 19.9363 18.9143 15.1
    endloop
  endfacet
  facet normal 0.546949 -0.837166 0
    outer loop
      vertex 19.9363 18.9143 10.8
      vertex 21.05 19.642 10.8
      vertex 19.9363 18.9143 15.1
    endloop
  endfacet
  facet normal -0.677282 -0.735724 0
    outer loop
      vertex 28.7348 18.1853 10.8
      vertex 28.7348 18.1853 15.1
      vertex 27.2817 19.523 15.1
    endloop
  endfacet
  facet normal -0.677282 -0.735724 0
    outer loop
      vertex 27.2817 19.523 10.8
      vertex 28.7348 18.1853 10.8
      vertex 27.2817 19.523 15.1
    endloop
  endfacet
  facet normal -0.879474 -0.475947 0
    outer loop
      vertex 29.6749 16.4482 15.1
      vertex 28.7348 18.1853 15.1
      vertex 29.6749 16.4482 10.8
    endloop
  endfacet
  facet normal -0.879474 -0.475947 0
    outer loop
      vertex 29.6749 16.4482 10.8
      vertex 28.7348 18.1853 15.1
      vertex 28.7348 18.1853 10.8
    endloop
  endfacet
  facet normal -0.986361 -0.164595 0
    outer loop
      vertex 30 14.5 15.1
      vertex 29.6749 16.4482 15.1
      vertex 30 14.5 10.8
    endloop
  endfacet
  facet normal -0.986361 -0.164595 0
    outer loop
      vertex 30 14.5 10.8
      vertex 29.6749 16.4482 15.1
      vertex 29.6749 16.4482 10.8
    endloop
  endfacet
  facet normal -0.986361 0.164595 0
    outer loop
      vertex 30 14.5 15.1
      vertex 30 14.5 10.8
      vertex 29.6749 12.5518 15.1
    endloop
  endfacet
  facet normal -0.986361 0.164595 0
    outer loop
      vertex 29.6749 12.5518 15.1
      vertex 30 14.5 10.8
      vertex 29.6749 12.5518 10.8
    endloop
  endfacet
  facet normal -0.879474 0.475947 0
    outer loop
      vertex 29.6749 12.5518 15.1
      vertex 29.6749 12.5518 10.8
      vertex 28.7348 10.8147 15.1
    endloop
  endfacet
  facet normal -0.879474 0.475947 0
    outer loop
      vertex 28.7348 10.8147 15.1
      vertex 29.6749 12.5518 10.8
      vertex 28.7348 10.8147 10.8
    endloop
  endfacet
  facet normal -0.677282 0.735724 0
    outer loop
      vertex 28.7348 10.8147 15.1
      vertex 28.7348 10.8147 10.8
      vertex 27.2817 9.477 15.1
    endloop
  endfacet
  facet normal -0.677282 0.735724 0
    outer loop
      vertex 27.2817 9.477 15.1
      vertex 28.7348 10.8147 10.8
      vertex 27.2817 9.477 10.8
    endloop
  endfacet
  facet normal -0.401696 0.915773 0
    outer loop
      vertex 27.2817 9.477 15.1
      vertex 27.2817 9.477 10.8
      vertex 25.4729 8.6836 15.1
    endloop
  endfacet
  facet normal -0.401696 0.915773 0
    outer loop
      vertex 25.4729 8.6836 15.1
      vertex 27.2817 9.477 10.8
      vertex 25.4729 8.6836 10.8
    endloop
  endfacet
  facet normal -0.0825792 0.996585 0
    outer loop
      vertex 25.4729 8.6836 15.1
      vertex 25.4729 8.6836 10.8
      vertex 23.5045 8.52049 15.1
    endloop
  endfacet
  facet normal -0.0825792 0.996585 0
    outer loop
      vertex 23.5045 8.52049 15.1
      vertex 25.4729 8.6836 10.8
      vertex 23.5045 8.52049 10.8
    endloop
  endfacet
  facet normal 0.245485 0.9694 0
    outer loop
      vertex 23.5045 8.52049 15.1
      vertex 23.5045 8.52049 10.8
      vertex 21.5898 9.00536 15.1
    endloop
  endfacet
  facet normal 0.245485 0.9694 0
    outer loop
      vertex 21.5898 9.00536 15.1
      vertex 23.5045 8.52049 10.8
      vertex 21.5898 9.00536 10.8
    endloop
  endfacet
  facet normal 0.546949 0.837166 0
    outer loop
      vertex 21.5898 9.00536 15.1
      vertex 21.5898 9.00536 10.8
      vertex 19.9363 10.0857 15.1
    endloop
  endfacet
  facet normal 0.546949 0.837166 0
    outer loop
      vertex 19.9363 10.0857 15.1
      vertex 21.5898 9.00536 10.8
      vertex 19.9363 10.0857 10.8
    endloop
  endfacet
endsolid OpenSCAD_Model
