G04 #@! TF.FileFunction,Legend,Bot*
%FSLAX46Y46*%
G04 Gerber Fmt 4.6, Leading zero omitted, Abs format (unit mm)*
G04 Created by KiCad (PCBNEW 4.0.6) date Saturday, July 01, 2017 'AMt' 11:58:48 AM*
%MOMM*%
%LPD*%
G01*
G04 APERTURE LIST*
%ADD10C,0.100000*%
%ADD11C,0.120000*%
%ADD12C,0.150000*%
G04 APERTURE END LIST*
D10*
D11*
X199648000Y-99743000D02*
X199648000Y-101743000D01*
X197608000Y-101743000D02*
X197608000Y-99743000D01*
X200107000Y-92701000D02*
X201307000Y-92701000D01*
X201307000Y-90941000D02*
X200107000Y-90941000D01*
X207778400Y-103180200D02*
X206518400Y-103180200D01*
X200958400Y-103180200D02*
X202218400Y-103180200D01*
X207778400Y-99420200D02*
X207778400Y-103180200D01*
X200958400Y-97170200D02*
X200958400Y-103180200D01*
X223175600Y-107640800D02*
X224575600Y-107640800D01*
X224575600Y-107640800D02*
X224575600Y-110440800D01*
X223175600Y-107640800D02*
X223175600Y-110440800D01*
X227544400Y-107640800D02*
X228944400Y-107640800D01*
X228944400Y-107640800D02*
X228944400Y-110440800D01*
X227544400Y-107640800D02*
X227544400Y-110440800D01*
X232014800Y-107681800D02*
X233414800Y-107681800D01*
X233414800Y-107681800D02*
X233414800Y-110481800D01*
X232014800Y-107681800D02*
X232014800Y-110481800D01*
X202376000Y-93584800D02*
X202376000Y-94984800D01*
X202376000Y-94984800D02*
X199576000Y-94984800D01*
X202376000Y-93584800D02*
X199576000Y-93584800D01*
X206186000Y-84771000D02*
X206186000Y-86171000D01*
X206186000Y-86171000D02*
X203386000Y-86171000D01*
X206186000Y-84771000D02*
X203386000Y-84771000D01*
D12*
X198985143Y-96353334D02*
X199032762Y-96305715D01*
X199080381Y-96162858D01*
X199080381Y-96067620D01*
X199032762Y-95924762D01*
X198937524Y-95829524D01*
X198842286Y-95781905D01*
X198651810Y-95734286D01*
X198508952Y-95734286D01*
X198318476Y-95781905D01*
X198223238Y-95829524D01*
X198128000Y-95924762D01*
X198080381Y-96067620D01*
X198080381Y-96162858D01*
X198128000Y-96305715D01*
X198175619Y-96353334D01*
X199080381Y-97305715D02*
X199080381Y-96734286D01*
X199080381Y-97020000D02*
X198080381Y-97020000D01*
X198223238Y-96924762D01*
X198318476Y-96829524D01*
X198366095Y-96734286D01*
X197575466Y-92273381D02*
X197908800Y-91797190D01*
X198146895Y-92273381D02*
X198146895Y-91273381D01*
X197765942Y-91273381D01*
X197670704Y-91321000D01*
X197623085Y-91368619D01*
X197575466Y-91463857D01*
X197575466Y-91606714D01*
X197623085Y-91701952D01*
X197670704Y-91749571D01*
X197765942Y-91797190D01*
X198146895Y-91797190D01*
X197242133Y-91273381D02*
X196575466Y-91273381D01*
X197004038Y-92273381D01*
X208113381Y-100508295D02*
X208922905Y-100508295D01*
X209018143Y-100555914D01*
X209065762Y-100603533D01*
X209113381Y-100698771D01*
X209113381Y-100889248D01*
X209065762Y-100984486D01*
X209018143Y-101032105D01*
X208922905Y-101079724D01*
X208113381Y-101079724D01*
X209113381Y-102079724D02*
X209113381Y-101508295D01*
X209113381Y-101794009D02*
X208113381Y-101794009D01*
X208256238Y-101698771D01*
X208351476Y-101603533D01*
X208399095Y-101508295D01*
X222877981Y-108702705D02*
X221877981Y-108702705D01*
X221877981Y-108940800D01*
X221925600Y-109083658D01*
X222020838Y-109178896D01*
X222116076Y-109226515D01*
X222306552Y-109274134D01*
X222449410Y-109274134D01*
X222639886Y-109226515D01*
X222735124Y-109178896D01*
X222830362Y-109083658D01*
X222877981Y-108940800D01*
X222877981Y-108702705D01*
X222877981Y-110226515D02*
X222877981Y-109655086D01*
X222877981Y-109940800D02*
X221877981Y-109940800D01*
X222020838Y-109845562D01*
X222116076Y-109750324D01*
X222163695Y-109655086D01*
X227246781Y-108702705D02*
X226246781Y-108702705D01*
X226246781Y-108940800D01*
X226294400Y-109083658D01*
X226389638Y-109178896D01*
X226484876Y-109226515D01*
X226675352Y-109274134D01*
X226818210Y-109274134D01*
X227008686Y-109226515D01*
X227103924Y-109178896D01*
X227199162Y-109083658D01*
X227246781Y-108940800D01*
X227246781Y-108702705D01*
X226342019Y-109655086D02*
X226294400Y-109702705D01*
X226246781Y-109797943D01*
X226246781Y-110036039D01*
X226294400Y-110131277D01*
X226342019Y-110178896D01*
X226437257Y-110226515D01*
X226532495Y-110226515D01*
X226675352Y-110178896D01*
X227246781Y-109607467D01*
X227246781Y-110226515D01*
X231717181Y-108743705D02*
X230717181Y-108743705D01*
X230717181Y-108981800D01*
X230764800Y-109124658D01*
X230860038Y-109219896D01*
X230955276Y-109267515D01*
X231145752Y-109315134D01*
X231288610Y-109315134D01*
X231479086Y-109267515D01*
X231574324Y-109219896D01*
X231669562Y-109124658D01*
X231717181Y-108981800D01*
X231717181Y-108743705D01*
X230717181Y-109648467D02*
X230717181Y-110267515D01*
X231098133Y-109934181D01*
X231098133Y-110077039D01*
X231145752Y-110172277D01*
X231193371Y-110219896D01*
X231288610Y-110267515D01*
X231526705Y-110267515D01*
X231621943Y-110219896D01*
X231669562Y-110172277D01*
X231717181Y-110077039D01*
X231717181Y-109791324D01*
X231669562Y-109696086D01*
X231621943Y-109648467D01*
X198223095Y-94762581D02*
X198223095Y-93762581D01*
X197985000Y-93762581D01*
X197842142Y-93810200D01*
X197746904Y-93905438D01*
X197699285Y-94000676D01*
X197651666Y-94191152D01*
X197651666Y-94334010D01*
X197699285Y-94524486D01*
X197746904Y-94619724D01*
X197842142Y-94714962D01*
X197985000Y-94762581D01*
X198223095Y-94762581D01*
X196794523Y-94095914D02*
X196794523Y-94762581D01*
X197032619Y-93714962D02*
X197270714Y-94429248D01*
X196651666Y-94429248D01*
X202033095Y-85923381D02*
X202033095Y-84923381D01*
X201795000Y-84923381D01*
X201652142Y-84971000D01*
X201556904Y-85066238D01*
X201509285Y-85161476D01*
X201461666Y-85351952D01*
X201461666Y-85494810D01*
X201509285Y-85685286D01*
X201556904Y-85780524D01*
X201652142Y-85875762D01*
X201795000Y-85923381D01*
X202033095Y-85923381D01*
X200604523Y-84923381D02*
X200795000Y-84923381D01*
X200890238Y-84971000D01*
X200937857Y-85018619D01*
X201033095Y-85161476D01*
X201080714Y-85351952D01*
X201080714Y-85732905D01*
X201033095Y-85828143D01*
X200985476Y-85875762D01*
X200890238Y-85923381D01*
X200699761Y-85923381D01*
X200604523Y-85875762D01*
X200556904Y-85828143D01*
X200509285Y-85732905D01*
X200509285Y-85494810D01*
X200556904Y-85399571D01*
X200604523Y-85351952D01*
X200699761Y-85304333D01*
X200890238Y-85304333D01*
X200985476Y-85351952D01*
X201033095Y-85399571D01*
X201080714Y-85494810D01*
M02*
