M48
;DRILL file {KiCad 4.0.6} date Saturday, July 01, 2017 'AMt' 11:58:53 AM
;FORMAT={-:-/ absolute / inch / decimal}
FMAT,2
INCH,TZ
T1C0.013
T2C0.039
T3C0.039
T4C0.040
T5C0.050
T6C0.055
%
G90
G05
M72
T1
X7.88Y-3.79
X8.09Y-3.317
X8.2Y-4.225
X8.285Y-4.585
X8.3983Y-4.4662
X8.4Y-3.595
X8.44Y-4.26
X8.525Y-4.395
X8.6Y-4.16
X8.6323Y-4.4053
X8.635Y-4.29
X8.765Y-4.265
X8.94Y-4.27
X9.115Y-4.265
T2
X8.28Y-4.7
X8.28Y-4.855
X8.299Y-3.349
X8.329Y-3.826
X8.329Y-3.926
X8.329Y-4.026
X8.329Y-4.126
X8.38Y-4.7
X8.38Y-4.855
X8.399Y-3.349
X8.48Y-4.7
X8.48Y-4.855
X8.489Y-3.826
X8.489Y-3.926
X8.489Y-4.026
X8.499Y-3.349
X8.58Y-4.7
X8.58Y-4.855
X8.819Y-4.48
X8.819Y-4.58
X8.819Y-4.68
X8.85Y-3.835
X8.85Y-3.935
X8.85Y-4.035
X8.919Y-4.48
X8.919Y-4.58
X8.919Y-4.68
X9.019Y-4.48
X9.019Y-4.58
X9.019Y-4.68
T3
X8.24Y-3.6629
T4
X8.685Y-3.835
X8.685Y-3.935
X8.685Y-4.035
T5
X8.64Y-3.6629
T6
X8.0832Y-3.495
X8.0832Y-3.695
X8.773Y-3.495
X8.773Y-3.695
T0
M30
