G04 #@! TF.FileFunction,Soldermask,Bot*
%FSLAX46Y46*%
G04 Gerber Fmt 4.6, Leading zero omitted, Abs format (unit mm)*
G04 Created by KiCad (PCBNEW 4.0.6) date Saturday, July 01, 2017 'AMt' 11:58:48 AM*
%MOMM*%
%LPD*%
G01*
G04 APERTURE LIST*
%ADD10C,0.100000*%
%ADD11R,2.000000X2.400000*%
%ADD12C,2.398980*%
%ADD13R,2.398980X2.398980*%
%ADD14R,2.100000X2.100000*%
%ADD15O,2.100000X2.100000*%
%ADD16R,2.432000X2.127200*%
%ADD17O,2.432000X2.127200*%
%ADD18C,2.400000*%
%ADD19R,2.200000X2.200000*%
%ADD20O,2.200000X2.200000*%
%ADD21R,1.900000X1.700000*%
%ADD22R,4.200000X2.400000*%
%ADD23R,1.900000X2.400000*%
%ADD24R,1.600000X1.600000*%
%ADD25C,1.300000*%
%ADD26C,3.600000*%
G04 APERTURE END LIST*
D10*
D11*
X198628000Y-102743000D03*
X198628000Y-98743000D03*
D12*
X219456000Y-93037660D03*
D13*
X209296000Y-93037660D03*
D14*
X224790000Y-97409000D03*
D15*
X224790000Y-99949000D03*
X224790000Y-102489000D03*
D14*
X224002600Y-113792000D03*
D15*
X224002600Y-116332000D03*
X224002600Y-118872000D03*
D14*
X226542600Y-113792000D03*
D15*
X226542600Y-116332000D03*
X226542600Y-118872000D03*
D14*
X229082600Y-113792000D03*
D15*
X229082600Y-116332000D03*
X229082600Y-118872000D03*
D14*
X215620600Y-97180400D03*
D15*
X215620600Y-99720400D03*
X215620600Y-102260400D03*
D14*
X211556600Y-97180400D03*
D15*
X211556600Y-99720400D03*
X211556600Y-102260400D03*
X211556600Y-104800400D03*
D16*
X220599000Y-97409000D03*
D17*
X220599000Y-99949000D03*
X220599000Y-102489000D03*
D18*
X222834200Y-93853000D03*
X222834200Y-88773000D03*
X205314200Y-93853000D03*
X205314200Y-88773000D03*
D14*
X210312000Y-123317000D03*
D15*
X212852000Y-123317000D03*
X215392000Y-123317000D03*
X217932000Y-123317000D03*
D14*
X210312000Y-119380000D03*
D15*
X212852000Y-119380000D03*
X215392000Y-119380000D03*
X217932000Y-119380000D03*
D19*
X210794600Y-85064600D03*
D20*
X213334600Y-85064600D03*
X215874600Y-85064600D03*
D21*
X202057000Y-91821000D03*
X199357000Y-91821000D03*
D22*
X204368400Y-104420200D03*
D23*
X204368400Y-98120200D03*
X206668400Y-98120200D03*
X202068400Y-98120200D03*
D24*
X223875600Y-110540800D03*
X223875600Y-108340800D03*
D25*
X223875600Y-109440800D03*
D24*
X228244400Y-110540800D03*
X228244400Y-108340800D03*
D25*
X228244400Y-109440800D03*
D24*
X232714800Y-110581800D03*
X232714800Y-108381800D03*
D25*
X232714800Y-109481800D03*
D24*
X199476000Y-94284800D03*
X201676000Y-94284800D03*
D25*
X200576000Y-94284800D03*
D24*
X203286000Y-85471000D03*
X205486000Y-85471000D03*
D25*
X204386000Y-85471000D03*
D26*
X229362000Y-85471000D03*
X202438000Y-120523000D03*
M02*
